<svg width="20" height="20" viewBox="0 0 20 20" fill="none" xmlns="http://www.w3.org/2000/svg">
<rect x="0.5" y="3.0498" width="16.2826" height="16.2826" stroke="#252429"/>
<rect x="2.40332" width="17.2826" height="17.2826" fill="#252429"/>
<path d="M12.664 7.43098C12.664 6.52259 11.9083 5.76688 10.9999 5.76688C10.0896 5.76688 9.35972 6.52468 9.35972 7.43098C9.35972 8.3393 10.0915 9.07118 10.9999 9.07118C11.9063 9.07118 12.664 8.34136 12.664 7.43098ZM10.0097 7.43097C10.0097 6.86877 10.4639 6.41727 10.9999 6.41727C11.5607 6.41727 12.0136 6.87018 12.0136 7.43097C12.0136 7.9669 11.5621 8.42117 10.9999 8.42117C10.4626 8.42117 10.0097 7.96832 10.0097 7.43097Z" fill="#EEEEEE" stroke="#EEEEEE" stroke-width="0.2"/>
<path d="M10.9 3.90098C9.53658 3.92783 8.29462 4.50211 7.39839 5.39839C6.48029 6.31654 5.9 7.59789 5.9 9C5.9 10.4269 6.48056 11.6833 7.39747 12.6245L7.39839 12.6254C8.31741 13.5444 9.59909 14.1 11 14.1C12.4257 14.1 13.6824 13.5441 14.6245 12.6263L14.6245 12.6264L14.6263 12.6245C15.5441 11.6824 16.1 10.4252 16.1 9C16.1 7.59859 15.5444 6.3174 14.6254 5.39839L14.6254 5.39838L14.6245 5.39747C13.6833 4.4806 12.4264 3.9 11 3.9H10.9V3.90098ZM7.4094 11.6104C6.87478 10.89 6.55018 9.97543 6.55018 9C6.55018 7.77282 7.05917 6.66019 7.84789 5.84803C8.66007 5.05962 9.77271 4.5503 10.9999 4.5503C12.2273 4.5503 13.3402 5.0595 14.1524 5.84851C14.963 6.65938 15.4496 7.77139 15.4496 9C15.4496 9.97828 15.1441 10.8938 14.6115 11.6137C14.2385 10.6689 13.3017 9.9902 12.232 9.9902H9.79159C9.79153 9.9902 9.79146 9.9902 9.7914 9.9902C8.70253 9.99028 7.76402 10.6657 7.4094 11.6104ZM14.092 12.2117C13.3072 12.9773 12.2104 13.4495 11 13.4495C9.81313 13.4495 8.7159 12.9779 7.9078 12.2105C8.06362 11.3131 8.83979 10.6402 9.7914 10.6402H12.232C13.16 10.6402 13.9366 11.313 14.092 12.2117Z" fill="#EEEEEE" stroke="#EEEEEE" stroke-width="0.2"/>
</svg>
