<svg width="20" height="20" viewBox="0 0 20 20" fill="none" xmlns="http://www.w3.org/2000/svg">
<path fill-rule="evenodd" clip-rule="evenodd" d="M16.2826 3.5498H1V18.8324H16.2826V3.5498ZM0 2.5498V19.8324H17.2826V2.5498H0Z" fill="#252429"/>
<rect x="2.40332" width="17.2826" height="17.2826" fill="#252429"/>
<path fill-rule="evenodd" clip-rule="evenodd" d="M15.3956 14.2831H7.60407C6.60885 14.2831 5.80005 13.4738 5.80005 12.4791V12.0206C5.80005 11.0254 6.60936 10.2166 7.60407 10.2166H15.3956C16.3908 10.2166 17.1996 11.0259 17.1996 12.0206V12.4791C17.1996 13.4743 16.3903 14.2831 15.3956 14.2831ZM7.60363 11.0751C7.08244 11.0751 6.65765 11.4999 6.65765 12.0211V12.4795C6.65765 13.0007 7.08244 13.4255 7.60363 13.4255H15.3951C15.9163 13.4255 16.3411 13.0007 16.3411 12.4795V12.0211C16.3411 11.4999 15.9163 11.0751 15.3951 11.0751H7.60363Z" fill="#EEEEEE"/>
<path d="M15.0518 12.9376C14.6728 12.9376 14.3643 12.6291 14.3643 12.2501C14.3643 11.8711 14.6728 11.5626 15.0518 11.5626C15.4307 11.5626 15.7393 11.8711 15.7393 12.2501C15.7393 12.6291 15.4307 12.9376 15.0518 12.9376ZM15.0518 12.0207C14.9259 12.0207 14.8227 12.1238 14.8227 12.2497C14.8227 12.3756 14.9259 12.4787 15.0518 12.4787C15.1777 12.4787 15.2808 12.3756 15.2808 12.2497C15.2808 12.1238 15.1777 12.0207 15.0518 12.0207Z" fill="#EEEEEE"/>
<path fill-rule="evenodd" clip-rule="evenodd" d="M14.5643 12.2501C14.5643 12.5186 14.7832 12.7376 15.0518 12.7376C15.3203 12.7376 15.5 12.5186 15.5 12.2501C15.5 11.6216 14.5643 11.6216 14.5643 12.2501ZM14.3643 12.2501C14.3643 12.6291 14.6728 12.9376 15.0518 12.9376C15.4307 12.9376 15.7393 12.6291 15.7393 12.2501C15.7393 11.8711 15.4307 11.5626 15.0518 11.5626C14.6728 11.5626 14.3643 11.8711 14.3643 12.2501Z" fill="#EEEEEE"/>
<path d="M6.36145 11.7526C6.1261 11.721 5.96255 11.5043 5.99288 11.2704L6.76988 5.50211C6.90055 4.531 7.73681 3.8 8.71654 3.8H14.2788C15.2609 3.8 16.0972 4.53348 16.2259 5.50649L16.9851 11.2407C17.0156 11.4743 16.8519 11.6915 16.615 11.7222C16.3768 11.7534 16.1651 11.5869 16.134 11.353L15.3751 5.61914C15.3032 5.07205 14.8316 4.65814 14.2787 4.65814H8.71644C8.16573 4.65814 7.69385 5.07122 7.6204 5.61704L6.84354 11.3842L6.36145 11.7526Z" fill="#EEEEEE"/>
<path d="M11.7913 5.81792C11.7579 5.79403 11.7149 5.79403 11.6815 5.81792C11.3714 6.02779 11.0804 6.29027 10.8132 6.56698C10.7368 6.50015 10.6224 6.50498 10.5507 6.58133C10.4887 6.65286 10.4983 6.76746 10.5602 6.83415C10.1834 7.27321 9.86368 7.7359 9.61555 8.13202C9.55355 8.22743 9.6919 8.32767 9.76343 8.24179C10.1547 7.77896 10.5029 7.42107 10.8035 7.13969C10.8179 7.13016 10.8369 7.13016 10.8465 7.13969L12.5021 8.9051C12.6023 9.01487 12.7741 9.03393 12.8885 8.93852C13.0174 8.82875 13.0222 8.63793 12.9029 8.52347L11.1519 6.88193C11.1375 6.86757 11.1375 6.84852 11.1519 6.83416C11.5861 6.47628 11.8962 6.30451 12.0727 6.22815C12.1395 6.19956 12.1586 6.10415 12.1013 6.06121L11.7913 5.81792Z" fill="#EEEEEE"/>
<path d="M11.9148 5.6606L12.2235 5.90287C12.3223 5.97839 12.3469 6.09432 12.3303 6.1858C12.3139 6.27641 12.2539 6.368 12.1517 6.41187C12.015 6.47107 11.7721 6.60197 11.4295 6.86806L13.0414 8.37915C13.2467 8.57616 13.2366 8.90476 13.0183 9.09075L13.0166 9.09216C12.8132 9.2617 12.5215 9.22176 12.3554 9.04109L10.8181 7.40181C10.5519 7.65885 10.2503 7.97575 9.91618 8.37092L9.91713 8.36978C9.79843 8.51232 9.62139 8.48971 9.52113 8.41615C9.41986 8.34184 9.34721 8.17994 9.44677 8.02475C9.67951 7.65328 9.97539 7.22238 10.3231 6.8049C10.2912 6.68753 10.3102 6.55354 10.3996 6.45034L10.4048 6.44437C10.5016 6.34125 10.6396 6.30184 10.7675 6.3281C11.0137 6.08184 11.2816 5.84726 11.5679 5.65336C11.6705 5.58161 11.8055 5.58223 11.9076 5.65522L11.9148 5.6606Z" fill="#EEEEEE"/>
</svg>
