<svg width="20" height="20" viewBox="0 0 20 20" fill="none" xmlns="http://www.w3.org/2000/svg">
<rect x="0.5" y="3.0498" width="16.2826" height="16.2826" stroke="#252429"/>
<rect x="2.40332" width="17.2826" height="17.2826" fill="#252429"/>
<path d="M13.3736 11.0037L13.3737 11.0038C13.547 11.1771 13.8305 11.1771 14.0039 11.0038C14.1772 10.8305 14.1772 10.5469 14.0039 10.3736L14.0038 10.3735L11.9438 8.31884V5.0624C11.9438 4.81716 11.7453 4.61865 11.5001 4.61865H11.456L11.4538 4.62112C11.2303 4.64422 11.0563 4.83288 11.0563 5.0625V8.5C11.0563 8.62357 11.1082 8.73298 11.1876 8.81241L13.3736 11.0037ZM11.5 2.9C8.41152 2.9 5.9 5.41152 5.9 8.5C5.9 11.5885 8.41152 14.1 11.5 14.1C14.5885 14.1 17.1 11.5885 17.1 8.5C17.1 5.41152 14.5885 2.9 11.5 2.9ZM11.5 3.7875C14.1068 3.7875 16.2125 5.89323 16.2125 8.5C16.2125 11.1068 14.1068 13.2125 11.5 13.2125C8.89323 13.2125 6.7875 11.1068 6.7875 8.5C6.7875 5.89323 8.89323 3.7875 11.5 3.7875Z" fill="white" stroke="white" stroke-width="0.2"/>
</svg>
