<svg width="10" height="11" viewBox="0 0 10 11" fill="none" xmlns="http://www.w3.org/2000/svg">
<path fill-rule="evenodd" clip-rule="evenodd" d="M10 0.0766602H0V10.0767H10V0.0766602ZM5.15678 6.49266H4.58078C4.48082 5.78386 4.84794 5.33054 5.18382 4.91577C5.43934 4.60025 5.67678 4.30704 5.67678 3.94066C5.67678 3.51666 5.41278 3.16466 4.90078 3.16466C4.54878 3.16466 4.22878 3.34066 3.98078 3.62866L3.60478 3.28466C3.94078 2.90066 4.38078 2.62066 4.94878 2.62066C5.77278 2.62066 6.31678 3.10866 6.31678 3.90066C6.31678 4.39878 6.0258 4.75593 5.7342 5.11385C5.41229 5.50896 5.08962 5.905 5.15678 6.49266ZM4.88478 8.17266C4.62078 8.17266 4.41278 7.96466 4.41278 7.67666C4.41278 7.37266 4.62078 7.16466 4.88478 7.16466C5.14878 7.16466 5.36478 7.37266 5.36478 7.67666C5.36478 7.96466 5.14878 8.17266 4.88478 8.17266Z" fill="#828282"/>
</svg>
