<svg width="20" height="20" viewBox="0 0 20 20" fill="none" xmlns="http://www.w3.org/2000/svg">
<path fill-rule="evenodd" clip-rule="evenodd" d="M16.2826 3.5498H1V18.8324H16.2826V3.5498ZM0 2.5498V19.8324H17.2826V2.5498H0Z" fill="#252429"/>
<rect x="2.40332" width="17.2826" height="17.2826" fill="#252429"/>
<path fill-rule="evenodd" clip-rule="evenodd" d="M13.1036 9.70013H9.89508C9.65806 9.70013 9.46606 9.50722 9.46606 9.27111V7.43763C9.46606 7.20085 9.6583 7.00861 9.89508 7.00861H13.1036C13.3397 7.00861 13.5326 7.20061 13.5326 7.43763V9.27111C13.5326 9.50747 13.3399 9.70013 13.1036 9.70013ZM12.6745 7.86665H10.3245V8.84165H12.6745V7.86665Z" fill="white"/>
<path fill-rule="evenodd" clip-rule="evenodd" d="M12.6454 7.63747C12.0943 7.63736 12.2165 6.91925 12.2165 6.56005C12.2165 6.32187 12.1288 6.20676 12.0246 6.14016C11.9052 6.06381 11.7345 6.03345 11.552 6.03345H11.4471C11.265 6.03345 11.0943 6.06371 10.9747 6.14005C10.8705 6.20664 10.7826 6.32175 10.7826 6.56005C10.7826 6.91938 10.9049 7.63747 10.3536 7.63747C9.8023 7.63747 9.92456 6.91938 9.92456 6.56005C9.92456 6.14606 10.0698 5.7927 10.3466 5.54481C10.6207 5.2992 11.0033 5.17535 11.4471 5.17535H11.5519C11.9961 5.17535 12.3787 5.29916 12.6528 5.54482C12.9295 5.79276 13.0745 6.14615 13.0745 6.56005C13.0745 6.91931 13.1966 7.63736 12.6454 7.63747Z" fill="white"/>
<path d="M14.6875 13.175C14.3085 13.175 14 12.8665 14 12.4875C14 12.1085 14.3085 11.8 14.6875 11.8C15.0665 11.8 15.375 12.1085 15.375 12.4875C15.375 12.8665 15.0665 13.175 14.6875 13.175ZM14.6875 12.2581C14.5616 12.2581 14.4585 12.3612 14.4585 12.4871C14.4585 12.613 14.5616 12.7161 14.6875 12.7161C14.8134 12.7161 14.9165 12.613 14.9165 12.4871C14.9165 12.3612 14.8134 12.2581 14.6875 12.2581Z" fill="#EEEEEE"/>
<path fill-rule="evenodd" clip-rule="evenodd" d="M15.0955 14.4831H7.30402C6.3088 14.4831 5.5 13.6738 5.5 12.6791V12.2206C5.5 11.2254 6.30931 10.4166 7.30402 10.4166H15.0955C16.0908 10.4166 16.8996 11.2259 16.8996 12.2206V12.6791C16.8996 13.6743 16.0902 14.4831 15.0955 14.4831ZM7.30358 11.2751C6.78239 11.2751 6.3576 11.6999 6.3576 12.2211V12.6795C6.3576 13.2007 6.78239 13.6255 7.30358 13.6255H15.0951C15.6163 13.6255 16.0411 13.2007 16.0411 12.6795V12.2211C16.0411 11.6999 15.6163 11.2751 15.0951 11.2751H7.30358Z" fill="#EEEEEE"/>
<path d="M6.0614 11.9526C5.82605 11.921 5.6625 11.7043 5.69283 11.4704L6.46983 5.70211C6.60051 4.731 7.43676 4 8.41649 4H13.9788C14.9608 4 15.7971 4.73348 15.9258 5.70649L16.6851 11.4407C16.7156 11.6743 16.5518 11.8915 16.315 11.9222C16.0767 11.9534 15.865 11.7869 15.8339 11.553L15.0751 5.81914C15.0031 5.27205 14.5315 4.85814 13.9787 4.85814H8.41639C7.86568 4.85814 7.3938 5.27121 7.32035 5.81704L6.54349 11.5842L6.0614 11.9526Z" fill="#EEEEEE"/>
</svg>
