<svg width="20" height="20" viewBox="0 0 20 20" fill="none" xmlns="http://www.w3.org/2000/svg">
<path fill-rule="evenodd" clip-rule="evenodd" d="M16.2826 3.5498H1V18.8324H16.2826V3.5498ZM0 2.5498V19.8324H17.2826V2.5498H0Z" fill="#252429"/>
<rect x="2.40332" width="17.2826" height="17.2826" fill="#252429"/>
<path d="M11.5155 5.06059L11.8242 5.30287C11.923 5.37839 11.9476 5.49432 11.931 5.58579C11.9146 5.67641 11.8546 5.76799 11.7524 5.81186C11.6157 5.87107 11.3728 6.00196 11.0302 6.26805L12.6421 7.77914C12.8474 7.97616 12.8373 8.30475 12.619 8.49075L12.6173 8.49215C12.4139 8.66169 12.1222 8.62175 11.9562 8.44109L10.4188 6.8018C10.1526 7.05885 9.85099 7.37575 9.51688 7.77091L9.51784 7.76978C9.39913 7.91231 9.22209 7.8897 9.12184 7.81614C9.02056 7.74184 8.94792 7.57994 9.04748 7.42474C9.28021 7.05328 9.5761 6.62238 9.92382 6.2049C9.89187 6.08752 9.91086 5.95354 10.0003 5.85033L10.0055 5.84436C10.1023 5.74124 10.2403 5.70183 10.3682 5.72809C10.6144 5.48183 10.8823 5.24726 11.1686 5.05336C11.2712 4.9816 11.4062 4.98222 11.5083 5.05521L11.5155 5.06059Z" fill="#EEEEEE"/>
<path fill-rule="evenodd" clip-rule="evenodd" d="M14.131 6.94483C14.131 8.70452 12.7045 10.131 10.9448 10.131C9.18513 10.131 7.75862 8.70452 7.75862 6.94483C7.75862 5.18513 9.18513 3.75862 10.9448 3.75862C12.7045 3.75862 14.131 5.18513 14.131 6.94483ZM12.9931 10.3169C12.3961 10.6803 11.6949 10.8897 10.9448 10.8897C10.1948 10.8897 9.49362 10.6803 8.89658 10.3169V12.9341L10.7969 11.739C10.9227 11.6599 11.083 11.6615 11.2072 11.7432L12.9931 12.9174V10.3169ZM13.7518 9.71662C14.4553 9.00418 14.8897 8.02522 14.8897 6.94483C14.8897 4.76616 13.1235 3 10.9448 3C8.76616 3 7 4.76616 7 6.94483C7 8.02526 7.43435 9.00424 8.13796 9.71668V13.6207C8.13796 13.7588 8.213 13.8859 8.33386 13.9527C8.45472 14.0195 8.60232 14.0153 8.7192 13.9418L10.9942 12.511L13.1641 13.9376C13.2806 14.0142 13.4298 14.0207 13.5525 13.9545C13.6752 13.8883 13.7518 13.7601 13.7518 13.6207V9.71662Z" fill="#EEEEEE"/>
</svg>
