<svg width="20" height="20" viewBox="0 0 20 20" fill="none" xmlns="http://www.w3.org/2000/svg">
<rect x="0.5" y="3.0498" width="16.2826" height="16.2826" stroke="#252429"/>
<rect x="2.40332" width="17.2826" height="17.2826" fill="#252429"/>
<path fill-rule="evenodd" clip-rule="evenodd" d="M10.8155 2.79301C10.932 2.73566 11.068 2.73566 11.1845 2.79301L16.0121 5.16925C16.1619 5.24297 16.2515 5.39644 16.25 5.55857C16.2484 5.72073 16.1559 5.87253 16.0045 5.9433L14.4181 6.68512L16.0038 7.42268C16.1568 7.49386 16.2498 7.64771 16.25 7.81146C16.2502 7.97522 16.1574 8.12924 16.0045 8.20072L14.3392 8.97946L16.0121 9.80291C16.1619 9.87664 16.2515 10.0301 16.25 10.1922C16.2484 10.3544 16.1559 10.5062 16.0045 10.577L14.3392 11.3557L16.0121 12.1791C16.1619 12.2529 16.2515 12.4063 16.25 12.5685C16.2484 12.7306 16.1559 12.8824 16.0045 12.9532L11.177 15.2106C11.0647 15.2631 10.9353 15.2631 10.823 15.2106L5.99545 12.9532C5.84411 12.8824 5.75156 12.7306 5.75002 12.5685C5.74848 12.4063 5.8381 12.2529 5.98788 12.1792L5.98788 12.1791L7.66081 11.3557L5.99545 10.577C5.84411 10.5062 5.75156 10.3544 5.75002 10.1922C5.74848 10.0301 5.8381 9.87664 5.98788 9.80291L7.66082 8.97946L5.99545 8.20072C5.8426 8.12924 5.74984 7.97522 5.75 7.81147C5.75016 7.64771 5.84321 7.49386 5.99622 7.42268L7.58187 6.68512L5.99545 5.9433C5.84411 5.87253 5.75156 5.72073 5.75002 5.55857C5.74848 5.39644 5.8381 5.24297 5.98788 5.16925L10.8155 2.79301ZM7.1597 5.54453L11 7.34029L14.8403 5.54453L11 3.65425L7.1597 5.54453ZM7.1597 12.5544L11 14.3502L14.8403 12.5544L13.3473 11.8195L11.177 12.8344C11.0647 12.8869 10.9353 12.8869 10.823 12.8344L8.65273 11.8195L7.1597 12.5544ZM14.8169 7.81291L13.4079 7.15752L11.177 8.20072C11.0647 8.25322 10.9353 8.25322 10.823 8.20072L8.59211 7.15752L7.18312 7.81291L11 9.59772L14.8169 7.81291ZM14.8403 10.1782L13.3473 9.44329L11.177 10.4581C11.0647 10.5107 10.9353 10.5107 10.823 10.4581L8.65273 9.44329L7.1597 10.1782L11 11.974L14.8403 10.1782ZM6.20884 5.61778L6.20869 5.61785L6.17752 5.55452L6.20869 5.61785C6.20874 5.61783 6.20879 5.6178 6.20884 5.61778Z" fill="white"/>
</svg>
