<svg width="20" height="20" viewBox="0 0 20 20" fill="none" xmlns="http://www.w3.org/2000/svg">
<path fill-rule="evenodd" clip-rule="evenodd" d="M16.2826 3.5498H1V18.8324H16.2826V3.5498ZM0 2.5498V19.8324H17.2826V2.5498H0Z" fill="#252429"/>
<rect x="2.40332" width="17.2826" height="17.2826" fill="#252429"/>
<path fill-rule="evenodd" clip-rule="evenodd" d="M10.6176 8.84763C10.532 8.93391 10.4228 8.97489 10.3054 8.97489C10.187 8.97489 10.0784 8.93279 9.99361 8.84798L9.99277 8.84713L9.073 7.91627C8.90396 7.74733 8.90469 7.47317 9.07333 7.30453L9.99333 6.38454C10.0822 6.29505 10.2047 6.25734 10.3054 6.25734C10.4237 6.25734 10.5323 6.29937 10.6171 6.38407C10.7866 6.55297 10.786 6.82751 10.6172 6.99633L10.4359 7.17761H13.0312C13.2846 7.17761 13.47 7.38708 13.47 7.61634C13.47 7.83575 13.2767 8.06643 13.0163 8.03198H10.4289L10.6178 8.2249C10.7035 8.3104 10.7441 8.41922 10.7441 8.53617C10.7441 8.65441 10.7022 8.76286 10.6176 8.84763ZM12.4923 11.2444C12.4066 11.3309 12.2973 11.372 12.1798 11.372C12.0664 11.372 11.9769 11.334 11.92 11.3056L11.8915 11.2913L11.8688 11.2688C11.7822 11.1831 11.7412 11.0738 11.7412 10.9563C11.7412 10.8383 11.783 10.73 11.8672 10.6454L12.0564 10.4521H9.45362C9.20027 10.4521 9.01489 10.2427 9.01489 10.0134C9.01489 9.76007 9.22436 9.57469 9.45362 9.57469H12.0608L11.8799 9.39376C11.7103 9.22485 11.7107 8.95015 11.8795 8.78133C12.0484 8.61159 12.3228 8.61245 12.4916 8.78133L13.4115 9.70125C13.5809 9.87001 13.5807 10.1444 13.4124 10.3132L12.4923 11.2444Z" fill="white"/>
<path fill-rule="evenodd" clip-rule="evenodd" d="M10.4297 4.24314C8.28947 4.62942 6.666 6.49841 6.666 8.75215C6.666 11.2768 8.72283 13.3346 11.2594 13.3342C13.7955 13.3342 15.853 11.2658 15.853 8.74068C15.853 8.57204 15.9511 8.42594 16.0934 8.35652L16.1758 8.31342H16.2802C16.5283 8.31342 16.7073 8.52953 16.7073 8.75214C16.7073 11.7598 14.2549 14.2 11.2479 14.2C8.24084 14.2 5.80005 11.7592 5.80005 8.75214C5.80005 6.02178 7.81744 3.75874 10.4423 3.3731C10.4004 3.24946 10.4172 3.10948 10.4889 2.99953C10.6221 2.78337 10.8993 2.74675 11.0867 2.87181L11.8559 3.38079C11.9661 3.44908 12.0505 3.5786 12.0505 3.73145C12.0505 3.87104 11.9892 3.99722 11.8842 4.08088L11.8811 4.08339L11.1161 4.66815C11.0273 4.74746 10.9125 4.76032 10.8508 4.76032C10.7173 4.76032 10.5929 4.69497 10.5125 4.594L10.5114 4.59263C10.4294 4.48782 10.4056 4.36058 10.4297 4.24314Z" fill="white"/>
<path d="M16.3827 7.537C16.3827 7.91549 15.8147 7.91549 15.8147 7.537C15.8147 7.15807 16.3827 7.15807 16.3827 7.537Z" fill="white"/>
<path d="M16.0193 6.48051C16.0193 6.859 15.4513 6.859 15.4513 6.48051C15.4513 6.10202 16.0193 6.10202 16.0193 6.48051Z" fill="white"/>
<path d="M15.3377 5.49229C15.3377 5.87078 14.7698 5.87078 14.7698 5.49229C14.7698 5.11336 15.3377 5.11336 15.3377 5.49229Z" fill="white"/>
<path d="M14.3947 4.64047C14.3947 5.01896 13.8268 5.01896 13.8268 4.64047C13.8268 4.26154 14.3947 4.26154 14.3947 4.64047Z" fill="white"/>
<path d="M13.2699 4.04978C13.2699 4.42827 12.7019 4.42827 12.7019 4.04978C12.7019 3.67085 13.2699 3.67085 13.2699 4.04978Z" fill="white"/>
<path fill-rule="evenodd" clip-rule="evenodd" d="M15.7706 7.89941C15.6726 7.8123 15.6147 7.68593 15.6147 7.537C15.6147 7.38805 15.6725 7.26162 15.7706 7.17442C15.8649 7.09049 15.9851 7.0528 16.0987 7.0528C16.2124 7.0528 16.3325 7.09049 16.4269 7.17442C16.5249 7.26162 16.5827 7.38805 16.5827 7.537C16.5827 7.68593 16.5248 7.8123 16.4268 7.89941C16.3325 7.98325 16.2123 8.02087 16.0987 8.02087C15.9851 8.02087 15.865 7.98325 15.7706 7.89941ZM15.4072 6.84292C15.3092 6.75581 15.2513 6.62943 15.2513 6.48051C15.2513 6.33159 15.3092 6.20521 15.4072 6.1181C15.5016 6.03426 15.6217 5.99664 15.7353 5.99664C15.8489 5.99664 15.969 6.03426 16.0634 6.1181C16.1614 6.20521 16.2193 6.33159 16.2193 6.48051C16.2193 6.62943 16.1614 6.75581 16.0634 6.84292C15.969 6.92676 15.8489 6.96438 15.7353 6.96438C15.6217 6.96438 15.5016 6.92676 15.4072 6.84292ZM14.7257 5.8547C14.6277 5.76759 14.5698 5.64122 14.5698 5.49229C14.5698 5.34334 14.6276 5.21691 14.7256 5.12971C14.82 5.04578 14.9402 5.00809 15.0538 5.00809C15.1675 5.00809 15.2876 5.04578 15.382 5.12971C15.48 5.21691 15.5378 5.34334 15.5378 5.49229C15.5378 5.64122 15.4799 5.76759 15.3819 5.8547C15.2875 5.93854 15.1674 5.97616 15.0538 5.97616C14.9402 5.97616 14.8201 5.93854 14.7257 5.8547ZM13.7827 5.00288C13.6847 4.91577 13.6268 4.78939 13.6268 4.64047C13.6268 4.49152 13.6846 4.36509 13.7826 4.27789C13.877 4.19396 13.9972 4.15627 14.1108 4.15627C14.2245 4.15627 14.3446 4.19396 14.439 4.27789C14.537 4.36509 14.5948 4.49152 14.5948 4.64047C14.5948 4.78939 14.5369 4.91577 14.4389 5.00288C14.3445 5.08672 14.2244 5.12434 14.1108 5.12434C13.9972 5.12434 13.8771 5.08672 13.7827 5.00288ZM12.6579 4.41219C12.5598 4.32508 12.502 4.1987 12.502 4.04978C12.502 3.90083 12.5598 3.77439 12.6578 3.6872C12.7521 3.60327 12.8723 3.56558 12.9859 3.56558C13.0996 3.56558 13.2198 3.60327 13.3141 3.6872C13.4121 3.77439 13.4699 3.90083 13.4699 4.04978C13.4699 4.1987 13.4121 4.32508 13.314 4.41219C13.2197 4.49603 13.0995 4.53365 12.9859 4.53365C12.8723 4.53365 12.7522 4.49603 12.6579 4.41219Z" fill="white"/>
</svg>
