<svg fill="none" xmlns="http://www.w3.org/2000/svg">
    <g clip-path="url(#clip0)">
        <path d="M34.195 27.49h-4.23c-3.149 0-5.848-2.075-6.838-4.98l2.385-.83c.63 1.89 2.384 3.274 4.454 3.274h4.23c1.484 0 2.744-1.291 2.744-2.86 0-1.798-1.845-2.259-3.78-2.536l-3.914-.6c-2.655-.368-6.3-1.244-6.3-5.071 0-2.952 2.34-5.396 5.22-5.396h4.23c3.15 0 5.849 2.075 6.794 4.98l-2.34.83c-.675-1.89-2.385-3.227-4.454-3.227h-4.23c-1.485 0-2.744 1.245-2.744 2.813 0 1.982 2.384 2.351 4.274 2.628l3.735.507c2.924.415 5.984 1.614 5.984 5.073 0 2.997-2.295 5.395-5.22 5.395zM60.967 19.051c0 4.658-3.69 8.44-8.234 8.44-2.16 0-4.23-.83-5.76-2.399V35.33H44.5V8.538h2.475v2.397a8.186 8.186 0 0 1 5.759-2.397c4.545 0 8.234 3.827 8.234 8.484v2.03zm-2.475-2.029c0-3.274-2.61-5.902-5.759-5.902-3.15 0-5.76 2.628-5.76 5.902v2.03c0 3.227 2.61 5.902 5.76 5.902s5.76-2.675 5.76-5.903v-2.029zM78.56 27.49V25.69a7.202 7.202 0 0 1-4.724 1.799h-4.005c-2.88 0-5.219-2.444-5.219-5.35 0-2.95 2.385-5.395 5.22-5.395h6.029c1.26 0 2.744-.184 2.744-1.752 0-2.813-2.384-3.874-4.724-3.874H71.9c-2.025 0-3.824 1.291-4.5 3.228l-2.339-.83c1.035-2.951 3.78-4.934 6.84-4.934h1.979c3.78 0 7.2 2.121 7.2 6.41v12.543h-2.52v-.047zm-2.744-8.209h-6.03c-1.484 0-2.744 1.292-2.744 2.86 0 1.521 1.26 2.812 2.744 2.812h4.005c2.61 0 4.724-2.213 4.724-4.888V18.82c-.855.37-1.754.461-2.7.461zM98.943 14.486c-.945-2.029-2.97-3.366-5.175-3.366-3.15 0-5.759 2.675-5.759 5.902v2.03c0 3.227 2.61 5.902 5.76 5.902 2.204 0 4.229-1.291 5.174-3.412l2.249 1.106a8.15 8.15 0 0 1-7.469 4.796c-4.544 0-8.234-3.781-8.234-8.439v-2.029c0-4.657 3.69-8.438 8.234-8.438 3.195 0 6.075 1.844 7.469 4.795l-2.25 1.153zM120.9 19.282h-13.948c.135 3.182 2.654 5.672 5.714 5.672 2.205 0 4.23-1.291 5.174-3.412l2.25 1.106a8.15 8.15 0 0 1-7.469 4.796c-4.544 0-8.234-3.781-8.234-8.439v-2.029c0-4.657 3.69-8.438 8.234-8.438 4.545 0 8.234 3.78 8.234 8.438v2.306h.045zm-8.234-8.162c-3.06 0-5.624 2.49-5.714 5.626h11.473c-.18-3.09-2.699-5.626-5.759-5.626zM144.387 27.49V14.484c0-2.12-1.62-3.366-3.554-3.366-1.755 0-3.24 1.522-3.24 3.366v13.05h-2.52v-13.05c0-2.12-1.619-3.366-3.554-3.366-1.8 0-3.285 1.522-3.285 3.366v13.05h-2.474V8.63h2.474v1.06c1.125-.83 2.205-1.06 3.555-1.06 1.71 0 3.419.83 4.499 2.213 1.215-1.614 2.88-2.213 4.77-2.213 3.194 0 5.759 2.628 5.759 5.902v13.05h-2.43v-.092zM167.874 19.282h-13.948c.135 3.182 2.655 5.672 5.714 5.672 2.205 0 4.23-1.291 5.175-3.412l2.249 1.106a8.15 8.15 0 0 1-7.469 4.796c-4.544 0-8.234-3.781-8.234-8.439v-2.029c0-4.657 3.69-8.438 8.234-8.438 4.545 0 8.234 3.78 8.234 8.438v2.306h.045zm-8.234-8.162c-3.059 0-5.624 2.49-5.714 5.626H165.4c-.18-3.09-2.7-5.626-5.76-5.626zM183.038 27.49h-4.23c-3.149 0-5.849-2.075-6.839-4.98l2.385-.83c.63 1.89 2.384 3.274 4.454 3.274h4.23c1.485 0 2.744-1.291 2.744-2.86 0-1.798-1.844-2.259-3.779-2.536l-3.915-.6c-2.654-.368-6.299-1.244-6.299-5.071 0-2.952 2.34-5.396 5.219-5.396h4.23c3.15 0 5.849 2.075 6.794 4.98l-2.34.83c-.675-1.89-2.384-3.227-4.454-3.227h-4.23c-1.484 0-2.744 1.245-2.744 2.813 0 1.982 2.384 2.351 4.274 2.628l3.735.507c2.879.37 5.984 1.568 5.984 5.027 0 3.043-2.295 5.44-5.219 5.44zM207.335 27.49V17.022c0-3.274-2.61-5.903-5.76-5.903-3.149 0-5.759 2.629-5.759 5.903V27.49h-2.475V.375h2.475v10.606a8.187 8.187 0 0 1 5.759-2.398c4.545 0 8.234 3.781 8.234 8.439V27.49h-2.474z" fill="#252429"/>
        <path d="M11.79 26.53l-8.282-8.488 8.281-8.518H3.508l8.281 8.518-8.281 8.488h8.281z" stroke="#252429" stroke-width="1.7" stroke-miterlimit="10" stroke-linejoin="bevel"/>
    </g>
    <defs>
        <clipPath id="clip0">
            <path fill="#252429" transform="translate(.81 .375)" d="M0 0h209v35H0z"/>
        </clipPath>
    </defs>
</svg>
