<svg width="20" height="20" viewBox="0 0 20 20" fill="none" xmlns="http://www.w3.org/2000/svg">
<rect x="0.5" y="3.0498" width="16.2826" height="16.2826" stroke="white"/>
<rect x="2.40332" width="17.2826" height="17.2826" fill="white"/>
<path d="M16.18 11.37L15.43 5.71C15.3 4.73 14.46 4 13.48 4H7.92C6.94 4 6.1 4.73 5.97 5.7L5.2 11.41C5.08 11.66 5 11.93 5 12.22V12.68C5 13.67 5.81 14.48 6.8 14.48H14.6C15.59 14.48 16.4 13.67 16.4 12.68V12.22C16.4 11.91 16.31 11.62 16.18 11.37ZM6.82 5.82C6.89 5.27 7.37 4.86 7.92 4.86H13.48C14.03 4.86 14.5 5.27 14.58 5.82L15.2 10.53C15.01 10.46 14.81 10.42 14.6 10.42H6.8C6.58 10.42 6.38 10.46 6.18 10.54L6.82 5.82ZM15.54 12.68C15.54 13.2 15.12 13.63 14.59 13.63H6.8C6.28 13.63 5.85 13.21 5.85 12.68V12.22C5.85 11.7 6.27 11.27 6.8 11.27H14.6C15.12 11.27 15.55 11.69 15.55 12.22V12.68H15.54Z" fill="#4D4C4F"/>
<path d="M8.71999 8.61999C8.81999 8.68999 8.99999 8.71 9.11999 8.57C9.45999 8.17 9.75999 7.86 10.02 7.6L11.56 9.23999C11.73 9.41999 12.02 9.45999 12.22 9.28999C12.44 9.09999 12.45 8.77999 12.24 8.57999L12.22 8.55999L10.63 7.07C10.97 6.81 11.22 6.67 11.35 6.61C11.45 6.57 11.51 6.47 11.53 6.38C11.55 6.29 11.52 6.18 11.42 6.1L11.11 5.86C11.01 5.79 10.88 5.79 10.77 5.86C10.47 6.05 10.2 6.3 9.94999 6.55C9.82999 6.53 9.70999 6.54 9.60999 6.64L9.59999 6.65C9.50999 6.75 9.49999 6.89 9.52999 7.01C9.17999 7.42 8.87999 7.84999 8.64999 8.21999C8.54999 8.37999 8.61999 8.53999 8.71999 8.61999Z" fill="#4D4C4F"/>
<path d="M14.2499 11.77C13.8799 11.77 13.5699 12.07 13.5699 12.45C13.5699 12.83 13.8699 13.13 14.2499 13.13C14.6299 13.13 14.9299 12.83 14.9299 12.45C14.9299 12.07 14.6199 11.77 14.2499 11.77ZM14.2499 12.78C14.0699 12.78 13.9199 12.62 13.9199 12.45C13.9199 12.28 14.0799 12.12 14.2499 12.12C14.4199 12.12 14.5799 12.28 14.5799 12.45C14.5799 12.62 14.4299 12.78 14.2499 12.78Z" fill="#4D4C4F"/>
</svg>
