<svg width="20" height="20" viewBox="0 0 20 20" fill="none" xmlns="http://www.w3.org/2000/svg">
<rect x="0.5" y="3.0498" width="16.2826" height="16.2826" stroke="white"/>
<rect x="2.40332" width="17.2826" height="17.2826" fill="white"/>
<path d="M7.60402 14.1831H15.3955C16.335 14.1831 17.0996 13.4191 17.0996 12.4791V12.0206C17.0996 11.0811 16.3355 10.3166 15.3955 10.3166H7.60402C6.66452 10.3166 5.9 11.0806 5.9 12.0206V12.4791C5.9 13.4186 6.66404 14.1831 7.60402 14.1831ZM6.5576 12.0211C6.5576 11.4446 7.02717 10.9751 7.60358 10.9751H15.3951C15.9715 10.9751 16.4411 11.4446 16.4411 12.0211V12.4795C16.4411 13.0559 15.9715 13.5255 15.3951 13.5255H7.60358C7.02717 13.5255 6.5576 13.0559 6.5576 12.4795V12.0211Z" fill="#4D4C4F" stroke="#4D4C4F" stroke-width="0.2"/>
<path d="M15.0518 12.8376C14.7281 12.8376 14.4643 12.5738 14.4643 12.2501C14.4643 11.9263 14.7281 11.6626 15.0518 11.6626C15.3756 11.6626 15.6393 11.9263 15.6393 12.2501C15.6393 12.5738 15.3756 12.8376 15.0518 12.8376ZM15.0518 11.9206C14.8707 11.9206 14.7228 12.0685 14.7228 12.2497C14.7228 12.4308 14.8707 12.5787 15.0518 12.5787C15.2329 12.5787 15.3808 12.4308 15.3808 12.2497C15.3808 12.0685 15.2329 11.9206 15.0518 11.9206Z" fill="#4D4C4F" stroke="#4D4C4F" stroke-width="0.2"/>
<path d="M6.25941 11.6154C6.14424 11.5516 6.07413 11.4215 6.09205 11.2832L6.09211 11.2827L6.86899 5.51545C6.86899 5.51544 6.86899 5.51544 6.86899 5.51543C6.99298 4.59396 7.78686 3.9 8.71654 3.9H14.2788C15.2107 3.9 16.0046 4.59632 16.1267 5.51963L16.886 11.2538L16.886 11.254C16.9094 11.4333 16.7836 11.5996 16.602 11.6231M6.25941 11.6154L16.5892 11.5239M6.25941 11.6154L6.23242 11.6562H6.41843C6.58051 11.6562 6.72213 11.5372 6.74441 11.371L6.25941 11.6154ZM16.602 11.6231L16.5892 11.5239M16.602 11.6231C16.6021 11.623 16.6021 11.623 16.6022 11.623L16.5892 11.5239M16.602 11.6231C16.4191 11.647 16.257 11.5197 16.2331 11.3398L16.2331 11.3398L15.4743 5.60602L15.4743 5.60594C15.3957 5.00906 14.8817 4.55814 14.2787 4.55814H8.71644C8.1156 4.55814 7.60141 5.00831 7.52129 5.60371L7.52129 5.60372L6.74443 11.3709L6.64531 11.3577L7.42218 5.59037C7.50897 4.94541 8.06546 4.45814 8.71644 4.45814H14.2787C14.9319 4.45814 15.4883 4.94622 15.5734 5.5929L16.3322 11.3266C16.349 11.4525 16.4616 11.5406 16.5892 11.5239" fill="#4D4C4F" stroke="#4D4C4F" stroke-width="0.2"/>
<path d="M12.1122 6.31999C12.18 6.29091 12.2207 6.22962 12.2319 6.16792C12.2432 6.10578 12.2261 6.03047 12.1623 5.98197L11.853 5.73924L11.8531 5.73916L12.0727 6.22813M12.1122 6.31999C12.1121 6.32002 12.1121 6.32005 12.112 6.32007L12.0727 6.22813M12.1122 6.31999C12.1123 6.31996 12.1123 6.31993 12.1124 6.31991L12.0727 6.22813M12.1122 6.31999C11.954 6.38847 11.6727 6.54243 11.2764 6.86163L11.2202 6.80896L11.175 6.85726L11.1519 6.83415M12.0727 6.22813C11.8962 6.3045 11.5861 6.47626 11.1519 6.83415M11.1519 6.83415L11.1728 6.85957" fill="#4D4C4F" stroke="#4D4C4F" stroke-width="0.2"/>
</svg>
