<svg width="20" height="20" viewBox="0 0 20 20" fill="none" xmlns="http://www.w3.org/2000/svg">
<rect x="0.5" y="3.0498" width="16.2826" height="16.2826" stroke="white"/>
<rect x="2.40332" width="17.2826" height="17.2826" fill="white"/>
<path d="M10.95 4.62988C8.21892 4.62988 6 6.86508 6 9.61079C6 10.4018 6.18563 11.1495 6.51218 11.8142C6.56718 11.9272 6.68191 11.9994 6.80781 11.9998H15.0921C15.218 11.9994 15.3328 11.9272 15.3878 11.8142C15.7143 11.1495 15.8999 10.4018 15.8999 9.61079C15.8999 6.86508 13.6811 4.62988 10.95 4.62988ZM10.95 5.28988C13.3218 5.28988 15.24 7.21961 15.24 9.61079C15.24 10.2283 15.1068 10.8092 14.8756 11.3399H12.5965C12.5561 10.7525 12.2051 10.2489 11.7097 9.98897L12.9025 7.29056C12.9493 7.18873 12.9407 7.0697 12.8806 6.97517C12.82 6.88064 12.7156 6.82349 12.6034 6.82306C12.4698 6.82263 12.3491 6.90256 12.2975 7.02588L11.0668 9.80679C11.0282 9.80421 10.9895 9.79992 10.95 9.79992C10.0803 9.79992 9.36221 10.4827 9.30336 11.3399H7.02427C6.7931 10.8093 6.6599 10.2284 6.6599 9.61083C6.6599 7.21965 8.57818 5.28988 10.95 5.28988ZM10.9466 5.39301C10.8585 5.39387 10.7743 5.42996 10.7128 5.49313C10.6518 5.55672 10.6183 5.6418 10.62 5.72988V6.49988C10.6187 6.58839 10.6531 6.67347 10.715 6.7362C10.7768 6.79937 10.8615 6.8346 10.95 6.8346C11.0385 6.8346 11.1232 6.79937 11.185 6.7362C11.2469 6.67347 11.2813 6.58838 11.28 6.49988V5.72988C11.2817 5.6405 11.2473 5.55413 11.1846 5.49097C11.1219 5.42738 11.0359 5.39215 10.9466 5.39301ZM7.52974 7.92642C7.37806 7.93071 7.24915 8.03728 7.2165 8.18552C7.18384 8.33334 7.25646 8.48459 7.39224 8.55204L8.05224 8.88204C8.13087 8.92974 8.22626 8.94263 8.31478 8.91728C8.4033 8.89193 8.47721 8.83048 8.51846 8.7484C8.55971 8.6659 8.56486 8.57008 8.53264 8.48372C8.49998 8.39779 8.43338 8.32904 8.34787 8.29423L7.68787 7.96423C7.63931 7.93844 7.58474 7.92556 7.52974 7.92642ZM14.3601 7.92642C14.3085 7.92728 14.2578 7.94017 14.2123 7.96423L13.5523 8.29423C13.4668 8.32904 13.4002 8.39779 13.3675 8.48373C13.3353 8.57009 13.3404 8.66591 13.3817 8.74841C13.4229 8.83048 13.4968 8.89193 13.5854 8.91728C13.6739 8.94263 13.7693 8.92974 13.8479 8.88205L14.5079 8.55205C14.6454 8.48373 14.7176 8.3299 14.6823 8.18037C14.6471 8.03126 14.5135 7.92599 14.3601 7.92642ZM10.9501 10.4598C11.461 10.4598 11.8765 10.8418 11.9332 11.3398H9.96696C10.0237 10.8414 10.4392 10.4598 10.9501 10.4598Z" fill="#4D4C4F"/>
</svg>
