<svg width="7" height="250" viewBox="0 0 7 250" fill="none" xmlns="http://www.w3.org/2000/svg">
<path d="M2.13745 244.982C2.09198 244.164 2.09198 243.391 2.0465 242.481C1.36435 242.481 0.727681 242.481 0.0455323 242.481C0.0455323 241.617 0.0455323 240.844 0.0455323 239.98C0.682205 239.98 1.31887 239.98 2.00102 239.98C2.00102 238.98 2.00102 238.07 2.00102 237.07C1.36435 237.024 0.727681 237.024 0.0455323 236.979C0.0455323 236.16 0.0455323 235.387 0.0455324 234.523C0.682205 234.523 1.31887 234.523 2.00102 234.523C2.00102 233.613 2.00102 232.84 2.00102 231.931C1.36435 231.931 0.727681 231.931 0.0455324 231.931C0.0455324 231.021 0.0455324 230.248 0.0455324 229.384C0.682205 229.384 1.31887 229.384 2.00102 229.384C2.00102 228.52 2.00102 227.701 2.00102 226.837C1.36435 226.837 0.727681 226.837 0.0455324 226.837C0.0455325 225.837 0.0455325 224.927 0.0455325 223.881C0.727681 223.881 1.40983 223.881 2.09198 223.881C2.09198 224.836 2.09198 225.791 2.09198 226.792C3.09246 226.792 4.04747 226.792 5.00248 226.792C5.00248 227.656 5.00248 228.474 5.00248 229.384C5.68463 229.384 6.23035 229.384 6.82155 229.384C6.82155 230.248 6.82155 231.112 6.82155 231.976C6.23035 231.976 5.63915 231.976 5.04796 231.976C5.04796 232.886 5.04796 233.75 5.04796 234.568C4.09295 234.568 3.09246 234.568 2.13745 234.568C2.13745 235.432 2.13745 236.205 2.13745 236.979C3.09246 236.979 4.002 236.979 5.00248 236.979C5.00248 236.16 5.00248 235.341 5.00248 234.523C5.59368 234.523 6.18487 234.523 6.82155 234.523C6.82155 235.387 6.82155 236.251 6.82155 237.115C6.23035 237.115 5.63915 237.115 5.04796 237.115C5.04796 238.07 5.04796 238.98 5.04796 239.98C5.68463 239.98 6.23035 239.98 6.82155 239.98C6.82155 240.844 6.82155 241.708 6.82155 242.572C6.23035 242.572 5.63915 242.572 5.00248 242.572C5.00248 243.391 5.00248 244.209 5.00248 245.028C4.04747 244.982 3.09246 244.982 2.13745 244.982Z" fill="white"/>
<path d="M2.13745 130.108C2.13745 129.199 2.13745 128.244 2.13745 127.243C1.36435 127.243 0.727681 127.243 0.0455323 127.243C0.0455323 126.379 0.0455323 125.561 0.0455323 124.697C0.682205 124.697 1.31887 124.697 2.00102 124.697C2.00102 123.833 2.00102 123.014 2.00102 122.15C1.36435 122.15 0.727681 122.15 0.0455323 122.15C0.0455323 121.286 0.0455323 120.513 0.0455324 119.603C0.682205 119.603 1.31887 119.603 2.00102 119.603C2.00102 118.739 2.00102 117.966 2.00102 117.102C1.36435 117.102 0.727681 117.102 0.0455324 117.102C0.0455324 116.102 0.0455324 115.147 0.0455324 114.146C0.682205 114.146 1.31887 114.146 2.00102 114.146C2.0465 113.237 2.09198 112.464 2.09198 111.645C3.04699 111.645 4.002 111.645 5.00248 111.645C5.00248 112.464 5.00248 113.282 5.00248 114.146C5.68463 114.101 6.27583 114.101 6.82155 114.055C6.82155 115.056 6.82155 116.056 6.82155 117.102C6.23035 117.102 5.63915 117.102 5.04796 117.102C5.04796 117.966 5.04796 118.739 5.04796 119.603C5.68463 119.558 6.23035 119.558 6.82155 119.512C6.82155 120.376 6.82155 121.241 6.82155 122.105C6.23035 122.105 5.63915 122.105 5.00248 122.105C5.00248 121.286 5.00248 120.513 5.00248 119.694C3.95652 119.694 3.04699 119.694 2.13745 119.694C2.13745 120.513 2.13745 121.331 2.13745 122.105C3.13794 122.105 4.09295 122.105 5.04796 122.105C5.04796 122.969 5.04796 123.833 5.04796 124.742C5.68463 124.742 6.27583 124.742 6.82155 124.742C6.82155 125.606 6.82155 126.47 6.82155 127.334C6.23035 127.334 5.63915 127.334 5.00248 127.334C5.00248 128.38 5.00248 129.29 5.00248 130.199C4.04747 130.063 3.09246 130.063 2.13745 130.108Z" fill="white"/>
<path d="M2.13745 90.8167C1.45531 90.8167 0.773158 90.8167 0.0455322 90.8167C0.0455322 89.8617 0.0455322 88.9521 0.0455323 87.9517C0.682205 87.9517 1.31887 87.9517 2.00102 87.9517C2.00102 87.0876 2.00102 86.269 2.00102 85.405C1.36435 85.405 0.727681 85.405 0.0455323 85.405C0.0455323 84.5409 0.0455323 83.7223 0.0455323 82.8583C0.682205 82.8583 1.31887 82.8583 2.00102 82.8583C2.00102 81.9942 2.00102 81.2211 2.00102 80.3116C1.36435 80.3116 0.727681 80.3116 0.0455324 80.3116C0.0455324 79.4475 0.0455324 78.6744 0.0455324 77.8104C0.682205 77.8104 1.31887 77.8104 2.00102 77.8104C2.00102 76.9009 2.00102 76.1277 2.00102 75.2637C1.36435 75.2637 0.727681 75.2637 0.0455324 75.2637C0.0455324 74.2632 0.0455324 73.3537 0.0455324 72.3532C0.682205 72.3532 1.31887 72.3532 2.00102 72.3532C2.0465 71.4437 2.09198 70.6251 2.09198 69.8065C3.04699 69.8065 4.002 69.8065 5.00248 69.8065C5.00248 70.6251 5.00248 71.4891 5.00248 72.3077C5.68463 72.3532 6.27583 72.3532 6.82155 72.3987C6.82155 73.3537 6.82155 74.3087 6.82155 75.2637C6.23035 75.2637 5.63915 75.2637 5.00248 75.2637C5.00248 76.1732 5.00248 77.0373 5.00248 77.8559C4.04747 77.8559 3.09246 77.8559 2.13745 77.8559C2.13745 78.7199 2.13745 79.493 2.13745 80.3116C3.13794 80.3116 4.04747 80.3116 5.00248 80.3116C5.00248 81.1757 5.00248 81.9942 5.00248 82.9038C5.68463 82.9038 6.23035 82.9038 6.82155 82.9038C6.82155 83.7678 6.82155 84.6319 6.82155 85.4959C6.23035 85.4959 5.63915 85.4959 5.00248 85.4959C5.00248 86.4055 5.00248 87.2695 5.00248 88.0881C4.04747 88.0881 3.09246 88.0881 2.09198 88.0881C2.13746 88.9976 2.13745 89.9071 2.13745 90.8167Z" fill="white"/>
<path d="M2.13745 25.3761C2.13745 24.5575 2.13745 23.7844 2.13745 22.8749C1.36435 22.8294 0.727681 22.8294 0.0455323 22.7839C0.0455323 21.8289 0.0455323 20.9194 0.0455323 19.9189C0.682205 19.9189 1.31887 19.9189 2.00102 19.9189C2.00102 19.0549 2.00102 18.2817 2.00102 17.3722C1.36435 17.3722 0.727681 17.3722 0.0455323 17.3722C0.0455323 16.4627 0.0455323 15.6896 0.0455324 14.8255C0.682205 14.8255 1.31887 14.8255 2.00102 14.8255C2.00102 13.9615 2.00102 13.1884 2.00102 12.3243C1.36435 12.3243 0.727681 12.3243 0.0455324 12.3243C0.0455324 11.4603 0.0455324 10.6871 0.0455324 9.77761C0.682205 9.77761 1.31887 9.77761 2.00102 9.77761C2.0465 8.86808 2.09198 8.00403 2.09198 7.13997C3.04699 7.13997 4.002 7.13997 5.00248 7.13997C5.00248 8.00403 5.00248 8.82261 5.00248 9.73214C5.68463 9.73214 6.27583 9.73214 6.82155 9.73214C6.82155 10.5962 6.82155 11.4603 6.82155 12.3243C6.23035 12.3243 5.63915 12.3243 5.04796 12.3243C5.04796 13.1884 5.04796 13.9615 5.04796 14.8255C5.68463 14.7801 6.23035 14.78 6.82155 14.7346C6.82155 15.5986 6.82155 16.4627 6.82155 17.3267C6.23035 17.3267 5.63915 17.3267 5.00248 17.3267C5.00248 16.5082 5.00248 15.7351 5.00248 14.9165C3.95652 14.9165 3.04699 14.9165 2.13745 14.9165C2.13745 15.7351 2.13745 16.5536 2.13745 17.3267C3.13794 17.3267 4.09295 17.3267 5.04796 17.3267C5.04796 18.1908 5.04796 19.0548 5.04796 19.9644C5.68463 19.9644 6.27583 19.9644 6.82155 19.9644C6.82155 20.9194 6.82155 21.8744 6.82155 22.8294C6.23035 22.8749 5.63915 22.8749 5.00248 22.9204C5.00248 23.7844 5.00248 24.603 5.00248 25.4216C4.04747 25.3306 3.09246 25.3306 2.13745 25.3761Z" fill="white"/>
<path d="M2.1374 46.1133C2.1374 45.2947 2.1374 44.4761 2.1374 43.5666C1.3643 43.5666 0.727625 43.5666 0.0454759 43.5666C0.0454759 42.7025 0.0454759 41.8839 0.045476 40.9744C0.682148 40.9744 1.3643 40.9744 2.04645 40.9744C2.04645 40.1104 2.04645 39.3372 2.04645 38.4732C1.3643 38.4732 0.727625 38.4732 0.045476 38.4732C0.045476 37.6091 0.045476 36.836 0.045476 35.972C0.682148 35.972 1.31882 35.972 2.00097 35.972C2.00097 34.9715 2.00097 34.062 2.00097 33.016C1.31882 33.016 0.682149 33.016 1.56725e-07 33.016C1.67029e-07 32.1519 1.76248e-07 31.3788 1.86552e-07 30.5148C0.636672 30.5148 1.27334 30.5148 2.00097 30.5148C2.04644 29.6053 2.09192 28.7412 2.1374 27.9226C3.09241 27.9226 4.04742 27.9226 5.0479 27.9226C5.0479 28.7412 5.0479 29.6053 5.0479 30.5148C5.73005 30.5148 6.32125 30.5148 6.86697 30.5148C6.86696 31.3788 6.86696 32.2429 6.86696 33.107C6.27577 33.107 5.68457 33.107 5.09338 33.107C5.09338 34.1074 5.09338 35.0624 5.09338 36.0174C4.13837 36.0174 3.13788 36.0174 2.18287 36.0174C2.18287 36.8815 2.18287 37.6546 2.18287 38.4277C3.13788 38.4277 4.04742 38.4277 5.0479 38.4277C5.0479 37.6091 5.0479 36.7906 5.0479 35.972C5.6391 35.972 6.23029 35.972 6.86696 35.972C6.86696 36.836 6.86696 37.7001 6.86696 38.5642C6.27577 38.5642 5.68457 38.5642 5.09338 38.5642C5.09338 39.3827 5.09338 40.1558 5.09338 40.9744C5.73005 40.9744 6.27577 40.9744 6.86696 40.9744C6.86696 41.8385 6.86696 42.7025 6.86696 43.5666C6.27577 43.5666 5.68457 43.5666 5.0479 43.5666C5.0479 44.5216 5.0479 45.3401 5.0479 46.1587C4.04742 46.1132 3.09241 46.1133 2.1374 46.1133Z" fill="white"/>
<path d="M2.13745 163.898C1.45531 163.898 0.773158 163.898 0.0455322 163.898C0.0455322 163.079 0.0455322 162.306 0.0455323 161.396C0.682205 161.396 1.31887 161.396 2.00102 161.396C2.00102 160.532 2.00102 159.759 2.00102 158.895C1.36435 158.895 0.727681 158.895 0.0455323 158.895C0.0455323 157.895 0.0455323 156.985 0.0455323 155.939C0.682205 155.939 1.31887 155.939 2.00102 155.939C2.0465 155.03 2.09198 154.257 2.09198 153.438C3.04699 153.438 4.002 153.438 5.00248 153.438C5.00248 154.257 5.00248 155.075 5.00248 155.939C5.68463 155.894 6.27583 155.894 6.82155 155.848C6.82155 156.849 6.82155 157.849 6.82155 158.895C6.23035 158.895 5.63915 158.895 5.04796 158.895C5.04796 159.759 5.04796 160.532 5.04796 161.396C5.68463 161.351 6.23035 161.351 6.82155 161.305C6.82155 162.17 6.82155 163.034 6.82155 163.898C6.23035 163.898 5.59368 163.898 5.00248 163.898C4.95701 163.079 4.957 162.26 4.91153 161.442C3.91104 161.442 3.04699 161.442 2.09198 161.442C2.13746 162.306 2.13745 163.125 2.13745 163.898Z" fill="white"/>
<path d="M2.13745 150.891C2.13745 150.073 2.13746 149.254 2.13746 148.345C1.36435 148.345 0.727681 148.345 0.0455323 148.345C0.0455323 147.481 0.0455323 146.662 0.0455323 145.798C0.682205 145.798 1.31887 145.798 2.00102 145.798C2.00102 144.934 2.00102 144.161 2.00102 143.297C1.36435 143.297 0.727681 143.297 0.0455323 143.297C0.0455323 142.251 0.0455323 141.341 0.0455324 140.295C0.727681 140.295 1.40983 140.295 2.13746 140.295C2.13746 141.25 2.13746 142.251 2.13746 143.206C3.13794 143.206 4.04747 143.206 5.04796 143.206C5.04796 142.205 5.04796 141.25 5.04796 140.295C5.63915 140.295 6.27583 140.295 6.86702 140.295C6.86702 141.296 6.86702 142.296 6.86702 143.342C6.27583 143.342 5.68463 143.342 5.09343 143.342C5.09343 144.161 5.09343 144.934 5.09343 145.752C5.73011 145.752 6.27583 145.752 6.86702 145.752C6.86702 146.616 6.86702 147.481 6.86702 148.345C6.27583 148.345 5.68463 148.345 5.04796 148.345C5.04796 149.3 5.04796 150.118 5.04796 150.937C4.04747 150.846 3.09246 150.846 2.13745 150.891Z" fill="white"/>
<path d="M2.13745 195.277C1.45531 195.277 0.773158 195.277 0.0455322 195.277C0.0455322 194.367 0.0455322 193.594 0.0455323 192.73C0.682205 192.73 1.2734 192.73 2.00102 192.73C2.00102 191.866 2.00102 191.047 2.00102 190.183C1.36435 190.183 0.727681 190.183 0.0455323 190.183C0.0455323 189.319 0.0455323 188.501 0.0455323 187.636C0.682205 187.636 1.31887 187.636 2.00102 187.636C2.00102 186.772 2.00102 185.999 2.00102 185.09C1.36435 185.09 0.727681 185.09 0.0455323 185.09C0.0455324 184.089 0.0455324 183.18 0.0455324 182.134C0.727681 182.134 1.40983 182.134 2.13746 182.134C2.13746 183.089 2.13746 184.044 2.13746 185.044C3.13794 185.044 4.09295 185.044 5.04796 185.044C5.04796 185.908 5.04796 186.727 5.04796 187.636C5.73011 187.636 6.27583 187.636 6.86702 187.636C6.86702 188.501 6.86702 189.365 6.86702 190.229C6.27583 190.229 5.68463 190.229 5.04796 190.229C5.04796 191.138 5.04796 192.002 5.04796 192.821C4.09295 192.821 3.13794 192.821 2.13746 192.821C2.13746 193.639 2.13745 194.458 2.13745 195.277Z" fill="white"/>
<path d="M2.1374 59.1196C1.45525 59.1196 0.773101 59.1196 0.0454759 59.1196C0.0454759 58.3011 0.0454759 57.528 0.0454759 56.6184C0.682148 56.6184 1.3643 56.6184 2.00097 56.6184C2.00097 55.7544 2.00097 54.9813 2.00097 54.1172C1.31882 54.1172 0.682149 54.1172 6.01958e-08 54.1172C7.04996e-08 53.2532 7.97187e-08 52.4801 9.00225e-08 51.616C0.636672 51.616 1.27334 51.616 1.95549 51.616C2.00097 50.7065 2.04645 49.8424 2.04645 48.9784C3.00146 48.9784 3.95646 48.9784 4.95695 48.9784C4.95695 49.8424 4.95695 50.661 4.95695 51.5705C5.63909 51.5705 6.23029 51.5705 6.77601 51.5705C6.77601 52.4346 6.77601 53.2987 6.77601 54.1627C6.18481 54.1627 5.59362 54.1627 5.00243 54.1627C5.00243 55.0268 5.00243 55.7999 5.00243 56.6639C5.6391 56.6184 6.18481 56.6184 6.77601 56.573C6.77601 57.437 6.77601 58.3011 6.77601 59.1651C6.18481 59.1651 5.54814 59.1651 4.95695 59.1651C4.91147 58.3466 4.91147 57.528 4.86599 56.7094C3.86551 56.7094 3.00146 56.7094 2.04645 56.7094C2.1374 57.5734 2.1374 58.3465 2.1374 59.1196Z" fill="white"/>
<path d="M2.13745 203.144C2.13745 202.371 2.13745 201.598 2.13745 200.688C1.40983 200.688 0.773158 200.688 0.0455323 200.688C0.0455323 199.779 0.0455323 199.005 0.0455323 198.141C0.682205 198.141 1.2734 198.141 2.00102 198.141C2.0465 197.141 2.09198 196.186 2.09198 195.231C3.04699 195.231 4.002 195.231 5.00248 195.231C5.00248 196.186 5.00248 197.095 5.00248 198.096C5.68463 198.096 6.27583 198.096 6.82155 198.096C6.82155 198.96 6.82155 199.824 6.82155 200.688C6.23035 200.688 5.63915 200.688 5.04796 200.688C5.04796 201.552 5.04796 202.325 5.04796 203.098C5.68463 203.098 6.23035 203.098 6.82155 203.098C6.82155 203.962 6.82155 204.826 6.82155 205.691C6.23035 205.691 5.59368 205.691 5.00248 205.691C5.00248 204.872 5.00248 204.053 5.00248 203.098C3.95652 203.144 3.04699 203.144 2.13745 203.144Z" fill="white"/>
<path d="M2.13746 98.4114C2.13746 97.6383 2.13746 96.8652 2.13746 95.9556C1.40983 95.9556 0.773158 95.9556 0.0455323 95.9556C0.0455323 95.0461 0.0455323 94.273 0.0455323 93.4089C0.682205 93.4089 1.2734 93.4089 2.00102 93.4089C2.0465 92.4994 2.09198 91.6353 2.13746 90.8168C3.09246 90.8168 4.04747 90.8168 5.04796 90.8168C5.04796 91.6353 5.04796 92.4994 5.04796 93.4089C5.73011 93.4089 6.3213 93.4089 6.86702 93.4089C6.86702 94.273 6.86702 95.137 6.86702 96.0011C6.27583 96.0011 5.68463 96.0011 5.09343 96.0011C5.09343 96.8652 5.09343 97.6383 5.09343 98.4114C5.73011 98.4114 6.27583 98.4114 6.86702 98.4114C6.86702 99.2754 6.86702 100.139 6.86702 101.004C6.27583 101.004 5.63915 101.004 5.04796 101.004C5.04796 100.185 5.04796 99.3664 5.04796 98.4114C3.95652 98.4114 3.04699 98.4114 2.13746 98.4114Z" fill="white"/>
<path d="M2.13745 255.624C2.13745 254.805 2.13745 253.987 2.13745 253.077C1.36435 253.077 0.727681 253.077 0.0455323 253.077C0.0455323 252.077 0.0455323 251.213 0.0455323 250.212C0.682205 250.212 1.31887 250.212 2.00102 250.212C2.0465 249.303 2.09198 248.439 2.09198 247.575C3.04699 247.575 4.002 247.575 5.00248 247.575C5.00248 248.439 5.00248 249.257 5.00248 250.167C5.68463 250.167 6.27583 250.167 6.82155 250.167C6.82155 251.122 6.82155 252.077 6.82155 253.032C6.23035 253.032 5.63915 253.032 5.00248 253.032C5.00248 253.987 5.00248 254.805 5.00248 255.624C4.04747 255.578 3.09246 255.578 2.13745 255.624Z" fill="white"/>
<path d="M2.13745 213.786C2.13745 212.967 2.13745 212.148 2.13745 211.239C1.36435 211.239 0.727681 211.239 0.0455323 211.239C0.0455323 210.238 0.0455323 209.374 0.0455323 208.374C0.682205 208.374 1.31887 208.374 2.00102 208.374C2.0465 207.464 2.09198 206.6 2.09198 205.736C3.04699 205.736 4.002 205.736 5.00248 205.736C5.00248 206.6 5.00248 207.419 5.00248 208.328C5.68463 208.328 6.27583 208.328 6.82155 208.328C6.82155 209.283 6.82155 210.238 6.82155 211.193C6.23035 211.193 5.63915 211.193 5.00248 211.193C5.00248 212.148 5.00248 212.967 5.00248 213.786C4.04747 213.74 3.09246 213.74 2.13745 213.786Z" fill="white"/>
<path d="M2.13745 171.947C2.13745 171.037 2.13745 170.082 2.13745 169.082C1.36435 169.082 0.727681 169.082 0.0455323 169.082C0.0455323 168.218 0.0455323 167.399 0.0455323 166.535C0.682205 166.535 1.31887 166.535 2.00102 166.535C2.0465 165.626 2.09198 164.762 2.09198 163.898L2.0465 163.898C3.00151 163.898 3.95652 163.898 4.957 163.898C4.957 164.762 4.957 165.58 4.957 166.49C5.63915 166.49 6.23035 166.49 6.77607 166.49C6.77607 167.354 6.77607 168.218 6.77607 169.082C6.18487 169.082 5.59367 169.082 4.957 169.082C4.957 170.128 4.957 171.037 4.957 171.992C4.04747 171.902 3.09246 171.902 2.13745 171.947Z" fill="white"/>
<path d="M2.13745 109.053C2.13745 108.234 2.13746 107.416 2.13746 106.506C1.36435 106.506 0.727681 106.506 0.0455323 106.506C0.0455323 105.642 0.0455323 104.824 0.0455323 103.959C0.682205 103.959 1.31888 103.959 2.0465 103.959C2.09198 102.914 2.13746 101.959 2.13746 101.004C3.09246 101.004 4.04747 101.004 5.04796 101.004C5.04796 101.959 5.04796 102.914 5.04796 103.914C5.73011 103.914 6.3213 103.914 6.86702 103.914C6.86702 104.778 6.86702 105.642 6.86702 106.506C6.27583 106.506 5.68463 106.506 5.04796 106.506C5.04796 107.461 5.04796 108.28 5.04796 109.098C4.04747 109.007 3.09246 109.007 2.13745 109.053Z" fill="white"/>
<path d="M2.13739 67.2144C2.09191 66.3959 2.04644 65.5773 2.04644 64.6677C1.36429 64.6677 0.773091 64.6677 0.0909424 64.6677C0.0909424 63.8037 0.0909424 63.0306 0.0909424 62.1211C0.727615 62.1211 1.36429 62.1211 2.04644 62.1211C2.09191 61.0751 2.13739 60.1201 2.13739 59.1651L2.09191 59.1651C3.04692 59.1651 4.00193 59.1651 5.00242 59.1651C5.00242 60.1201 5.00242 61.1206 5.00242 62.1211C5.68457 62.0756 6.27576 62.0756 6.82148 62.0301C6.82148 62.8942 6.82148 63.7582 6.82148 64.6223C6.23028 64.6223 5.63909 64.6223 5.00242 64.6223C5.00242 65.5773 5.00242 66.3959 5.00242 67.2144C4.04741 67.169 3.0924 67.169 2.13739 67.2144C2.13739 67.169 2.13739 67.2144 2.13739 67.2144Z" fill="white"/>
<path d="M2.13745 223.927C2.13745 223.108 2.13745 222.335 2.13745 221.425C1.36435 221.38 0.727681 221.38 0.0455323 221.335C0.0455323 220.516 0.0455323 219.697 0.0455323 218.833C0.682205 218.833 1.31887 218.833 2.00102 218.833C2.0465 217.924 2.09198 217.151 2.09198 216.332C3.04699 216.332 4.002 216.332 5.00248 216.332C5.00248 217.151 5.00248 217.969 5.00248 218.833C5.68463 218.788 6.27583 218.788 6.82155 218.742C6.82155 219.606 6.82155 220.47 6.82155 221.335C6.23035 221.38 5.63915 221.38 5.00248 221.425C5.00248 222.29 5.00248 223.108 5.00248 223.927C4.04747 223.927 3.09246 223.927 2.13745 223.927Z" fill="white"/>
<path d="M2.13745 140.25C2.09198 139.431 2.09198 138.658 2.0465 137.749C1.36435 137.749 0.727681 137.749 0.0455323 137.749C0.0455323 136.884 0.0455323 136.111 0.0455323 135.247C0.682205 135.247 1.31888 135.247 2.0465 135.247C2.09198 134.338 2.13745 133.474 2.18293 132.655C3.13794 132.655 4.09295 132.655 5.09343 132.655C5.09343 133.474 5.09343 134.338 5.09343 135.247C5.77558 135.247 6.36678 135.247 6.9125 135.247C6.9125 136.111 6.9125 136.975 6.9125 137.839C6.3213 137.839 5.73011 137.839 5.09343 137.839C5.09343 138.658 5.09343 139.477 5.09343 140.295C4.04747 140.25 3.09246 140.25 2.13745 140.25Z" fill="white"/>
<path d="M2.13745 182.088C2.13745 181.27 2.13745 180.497 2.13745 179.587C1.36435 179.542 0.727681 179.542 0.0455323 179.496C0.0455323 178.678 0.0455323 177.904 0.0455323 177.04C0.682205 177.04 1.31887 177.04 2.00102 177.04C2.0465 176.131 2.09198 175.312 2.09198 174.494C3.04699 174.494 4.002 174.494 5.00248 174.494C5.00248 175.312 5.00248 176.176 5.00248 176.995C5.68463 177.04 6.27583 177.04 6.82155 177.086C6.82155 177.904 6.82155 178.723 6.82155 179.496C6.23035 179.542 5.63915 179.542 5.00248 179.587C5.00248 180.451 5.00248 181.27 5.00248 182.088C4.04747 182.088 3.09246 182.088 2.13745 182.088Z" fill="white"/>
<path d="M2.1374 4.27481C2.1374 3.45623 2.1374 2.63766 2.1374 1.72813C1.3643 1.72813 0.727626 1.72813 3.03688e-08 1.72813C3.79611e-08 1.09146 4.4469e-08 0.545719 5.09766e-08 -4.76837e-07C2.27383 -4.49722e-07 4.54766 -4.22607e-07 6.82149 -3.95492e-07C6.82149 0.545719 6.82149 1.09144 6.82149 1.68264C6.23029 1.68264 5.6391 1.68264 5.00243 1.68264C5.00243 2.63765 5.00243 3.45623 5.00243 4.27481C4.04742 4.27481 3.09241 4.27481 2.1374 4.27481Z" fill="white"/>
<path d="M6.82151 182.088C6.82151 183.043 6.82151 183.998 6.82151 184.953C6.23031 184.953 5.59364 184.953 5.00244 184.953C5.00244 183.998 5.00244 183.043 5.00244 182.043C5.63911 182.088 6.23031 182.088 6.82151 182.088Z" fill="white"/>
<path d="M6.82151 223.927C6.82151 224.882 6.82151 225.837 6.82151 226.792C6.23031 226.792 5.59364 226.792 5.00244 226.792C5.00244 225.837 5.00244 224.882 5.00244 223.881C5.63911 223.927 6.23031 223.927 6.82151 223.927Z" fill="white"/>
<path d="M6.82151 87.9517C6.82151 88.9067 6.82151 89.8617 6.82151 90.8167C6.23031 90.8167 5.59364 90.8167 5.00244 90.8167C5.00244 89.8617 5.00244 88.9067 5.00244 87.9062C5.63911 87.9517 6.23031 87.9517 6.82151 87.9517Z" fill="white"/>
<path d="M6.82151 46.1133C6.82151 47.0683 6.82151 48.0233 6.82151 48.9783C6.23031 48.9783 5.59364 48.9783 5.00244 48.9783C5.00244 48.0233 5.00244 47.0683 5.00244 46.0678C5.63911 46.1133 6.23031 46.1133 6.82151 46.1133Z" fill="white"/>
<path d="M6.82151 4.27466C6.82151 5.22967 6.82151 6.18467 6.82151 7.13968C6.23031 7.13968 5.59364 7.13968 5.00244 7.13968C5.00244 6.18467 5.00244 5.22968 5.00244 4.22919C5.63911 4.27467 6.23031 4.27466 6.82151 4.27466Z" fill="white"/>
<path d="M6.82151 150.846C6.82151 151.71 6.82151 152.574 6.82151 153.438C6.23031 153.438 5.59364 153.438 5.00244 153.438C5.00244 152.574 5.00244 151.71 5.00244 150.846C5.63911 150.846 6.23031 150.846 6.82151 150.846Z" fill="white"/>
<path d="M6.82151 132.655C6.23031 132.655 5.59364 132.655 5.00244 132.655C5.00244 131.791 5.00244 130.927 5.00244 130.063C5.59364 130.063 6.23031 130.063 6.82151 130.063C6.82151 130.972 6.82151 131.791 6.82151 132.655Z" fill="white"/>
<path d="M6.82151 109.007C6.82151 109.871 6.82151 110.735 6.82151 111.6C6.23031 111.6 5.59364 111.6 5.00244 111.6C5.00244 110.735 5.00244 109.871 5.00244 109.007C5.63911 109.007 6.23031 109.007 6.82151 109.007Z" fill="white"/>
<path d="M5.00244 25.3304C5.59364 25.3304 6.23031 25.3304 6.82151 25.3304C6.82151 26.1944 6.82151 27.0585 6.82151 27.9225C6.23031 27.9225 5.59364 27.9225 5.00244 27.9225C5.04792 27.0585 5.04792 26.1944 5.00244 25.3304Z" fill="white"/>
<path d="M6.82151 69.7612C6.23031 69.7612 5.59364 69.7612 5.00244 69.7612C5.00244 68.8971 5.00244 68.033 5.00244 67.169C5.59364 67.169 6.23031 67.169 6.82151 67.169C6.82151 68.033 6.82151 68.8971 6.82151 69.7612Z" fill="white"/>
<path d="M6.82151 247.575C6.23031 247.575 5.59364 247.575 5.00244 247.575C5.00244 246.711 5.00244 245.847 5.00244 244.982C5.59364 244.982 6.23031 244.982 6.82151 244.982C6.82151 245.847 6.82151 246.711 6.82151 247.575Z" fill="white"/>
<path d="M6.82151 213.785C6.82151 214.649 6.82151 215.514 6.82151 216.378C6.23031 216.378 5.59364 216.378 5.00244 216.378C5.00244 215.514 5.00244 214.649 5.00244 213.785C5.63911 213.785 6.23031 213.785 6.82151 213.785Z" fill="white"/>
<path d="M6.82151 195.277C6.23031 195.277 5.59364 195.277 5.00244 195.277C5.00244 194.412 5.00244 193.548 5.00244 192.684C5.59364 192.684 6.23031 192.684 6.82151 192.684C6.82151 193.548 6.82151 194.412 6.82151 195.277Z" fill="white"/>
<path d="M6.82151 174.494C6.23031 174.494 5.59364 174.494 5.00244 174.494C5.00244 173.63 5.00244 172.766 5.00244 171.902C5.59364 171.902 6.23031 171.902 6.82151 171.902C6.82151 172.811 6.82151 173.63 6.82151 174.494Z" fill="white"/>
<path d="M5.00244 77.8106C5.59364 77.8106 6.23031 77.8106 6.82151 77.8106C6.82151 78.6292 6.82151 79.4478 6.82151 80.2209C6.23031 80.2209 5.59364 80.2209 5.00244 80.2209C5.04792 79.4023 5.04792 78.5837 5.00244 77.8106Z" fill="white"/>
<path d="M2.13745 7.13968C1.45531 7.13968 0.773158 7.13968 0.0455322 7.13968C0.0455322 6.18467 0.0455322 5.27514 0.0455323 4.27466C0.727681 4.27466 1.40983 4.27466 2.13745 4.27466C2.13745 5.22967 2.13745 6.18467 2.13745 7.13968Z" fill="white"/>
<path d="M2.13745 48.9783C1.45531 48.9783 0.773158 48.9783 0.0455322 48.9783C0.0455322 48.0233 0.0455322 47.1137 0.0455323 46.1133C0.727681 46.1133 1.40983 46.1133 2.13745 46.1133C2.13745 47.0683 2.13745 48.0233 2.13745 48.9783Z" fill="white"/>
<path d="M2.13745 69.7612C1.45531 69.7612 0.773158 69.7612 0.0455322 69.7612C0.0455322 68.8971 0.0455322 68.0785 0.0455323 67.2145C0.727681 67.2145 1.40983 67.2145 2.13745 67.2145C2.13745 68.0331 2.13745 68.8971 2.13745 69.7612Z" fill="white"/>
<path d="M2.13745 100.958C1.45531 100.958 0.773158 100.958 0.0455322 100.958C0.0455322 100.139 0.0455322 99.3209 0.0455323 98.4568C0.727681 98.4568 1.40983 98.4113 2.13745 98.4113C2.13745 99.2754 2.13745 100.139 2.13745 100.958Z" fill="white"/>
<path d="M2.13745 111.6C1.45531 111.6 0.773158 111.6 0.0455322 111.6C0.0455322 110.735 0.0455322 109.917 0.0455323 109.053C0.727681 109.053 1.40983 109.053 2.13745 109.053C2.13745 109.871 2.13745 110.735 2.13745 111.6Z" fill="white"/>
<path d="M2.13745 27.9225C1.45531 27.9225 0.773158 27.9225 0.0455322 27.9225C0.0455322 27.0585 0.0455322 26.2854 0.0455323 25.3759C0.727681 25.3759 1.40983 25.3759 2.13745 25.3759C2.13745 26.1944 2.13745 27.0585 2.13745 27.9225Z" fill="white"/>
<path d="M2.13745 132.655C1.45531 132.655 0.773158 132.655 0.0455322 132.655C0.0455322 131.791 0.0455322 131.018 0.0455323 130.108C0.727681 130.108 1.40983 130.108 2.13745 130.108C2.13745 130.927 2.13745 131.836 2.13745 132.655Z" fill="white"/>
<path d="M2.13745 153.438C1.45531 153.438 0.773158 153.438 0.0455322 153.438C0.0455322 152.529 0.0455322 151.756 0.0455323 150.891C0.727681 150.891 1.40983 150.891 2.13745 150.891C2.13745 151.71 2.13745 152.574 2.13745 153.438Z" fill="white"/>
<path d="M2.13745 174.494C1.45531 174.494 0.773158 174.494 0.0455322 174.494C0.0455322 173.63 0.0455322 172.811 0.0455323 171.947C0.727681 171.947 1.40983 171.947 2.13745 171.947C2.13745 172.766 2.13745 173.675 2.13745 174.494Z" fill="white"/>
<path d="M2.13745 205.736C1.45531 205.736 0.773158 205.736 0.0455322 205.736C0.0455322 204.917 0.0455322 204.099 0.0455323 203.235C0.727681 203.235 1.40983 203.189 2.13745 203.189C2.13745 204.008 2.13745 204.872 2.13745 205.736Z" fill="white"/>
<path d="M2.13745 216.332C1.45531 216.332 0.773158 216.332 0.0455322 216.332C0.0455322 215.468 0.0455322 214.65 0.0455323 213.786C0.727681 213.786 1.40983 213.786 2.13745 213.786C2.13745 214.604 2.13745 215.514 2.13745 216.332Z" fill="white"/>
<path d="M2.13745 247.575C1.45531 247.575 0.773158 247.575 0.0455322 247.575C0.0455322 246.756 0.0455322 245.937 0.0455323 245.028C0.727681 245.028 1.40983 245.028 2.13745 245.028C2.13745 245.847 2.13745 246.711 2.13745 247.575Z" fill="white"/>
</svg>
