<svg width="22" height="600" viewBox="0 0 22 600" fill="none" xmlns="http://www.w3.org/2000/svg">
<path d="M5.91687 415.263L5.91687 420.779L0.794806 420.779C0.618183 420.779 0.44156 420.867 0.353248 420.867C0.353248 422.968 0.353248 424.982 0.44156 427.083C0.529871 427.083 0.529871 427.171 0.618183 427.171L5.91687 427.171L5.91687 432.686L0.44156 432.686C0.353248 432.774 0.176625 432.774 0.0883135 432.774C0.0883135 434.613 0.0883135 436.364 0.0883135 438.202C0.264937 438.29 0.353248 438.377 0.529871 438.465L5.82856 438.465L5.82856 443.893C3.97402 443.893 2.11948 443.893 0.353248 443.893C0.353248 445.732 0.353248 447.658 0.353248 449.672L5.91687 449.672L5.91687 455.975L0.264936 455.975C0.176625 455.975 0.176625 455.975 0.0883133 455.975C0.0883132 457.902 0.0883132 459.828 0.0883132 461.754C0.264936 461.754 0.529871 461.754 0.706494 461.842L5.82856 461.842L5.82856 467.27L0.529871 467.27C0.353248 467.27 0.264936 467.357 0.0883131 467.357C0.0883131 469.196 0.0883131 471.122 0.0883131 472.961C0.176625 472.961 0.264936 472.961 0.353248 473.048L5.82856 473.048L5.82856 479.265L0.353248 479.265L0.353248 479.089C0.264936 479.089 0.176625 479.089 0.088313 479.089C0.088313 481.016 0.0883129 483.029 0.0883129 484.956C0.176624 484.956 0.264936 484.956 0.353248 484.956L0.441559 484.956C0.529871 484.956 0.529871 484.956 0.618182 484.956C0.706494 484.956 0.706494 484.956 0.794805 484.956L5.91687 484.956L5.91687 490.296L0.794805 490.296C0.706494 490.296 0.618182 490.296 0.441559 490.296C0.353247 490.296 0.264936 490.296 0.264936 490.296C0.176624 490.296 0.176624 490.296 0.0883129 490.296C0.0883128 496.25 0.0883127 502.203 0.0883126 508.245C0.176624 508.245 0.264936 508.245 0.353247 508.245L5.82856 508.245L5.82856 513.673L0.353247 513.673C0.264936 513.673 0.176624 513.673 0.0883126 513.673C0.0883125 519.276 0.0883124 524.967 0.0883124 530.571C0.176624 530.571 0.264935 530.571 0.353247 530.571L5.82856 530.571L5.82856 536.787L0.706493 536.787C0.618182 536.787 0.52987 536.787 0.441558 536.787C0.264935 536.787 0.176624 536.787 7.5381e-07 536.787C6.88034e-07 542.303 6.21214e-07 547.906 5.53351e-07 553.597C0.0883121 553.597 0.176624 553.597 0.264935 553.597C0.353247 553.597 0.441558 553.597 0.52987 553.597C0.706493 553.597 0.883116 553.597 1.05974 553.597L5.82856 553.597L5.82856 559.813L0.353247 559.813C0.264935 559.813 0.176624 559.813 0.088312 559.813C0.0883119 572.508 0.0883117 585.204 0.0883116 597.899C1.67049e-08 598.599 8.35246e-09 599.3 0 600L22.0779 600L22.0779 449.672L17.1324 449.672L17.1324 455.888L11.5688 455.888L11.5688 449.584L17.0441 449.584L17.0441 443.893C18.722 443.893 20.4 443.893 22.0779 443.893L22.0779 427.258C20.4 427.258 18.8987 427.171 17.2208 427.171C17.2208 425.07 17.2208 422.881 17.2208 420.779L11.4805 420.867L11.4805 415.351C9.62596 415.263 7.77142 415.263 5.91687 415.263ZM17.0441 496.075L17.0441 501.503L11.5688 501.503L11.5688 496.075L17.0441 496.075ZM17.0441 472.873L17.0441 479.089L11.5688 479.089L11.5688 472.873L17.0441 472.873ZM17.0441 461.666L17.0441 467.095L11.5688 467.095L11.5688 461.666L17.0441 461.666ZM17.0441 438.465C17.0441 440.304 17.0441 442.055 17.0441 443.893L11.5688 443.893L11.5688 438.465L17.0441 438.465ZM17.2208 432.686L11.5688 432.686L11.5688 427.171C13.335 427.171 15.4545 427.171 17.2208 427.171C17.3974 428.922 17.1324 430.76 17.2208 432.686Z" fill="white"/>
<path d="M11.4805 415.263C11.4805 413.425 11.4805 411.586 11.4805 409.572C13.4233 409.572 15.1896 409.572 17.1324 409.572C17.1324 407.646 17.1324 405.895 17.1324 403.794C18.8986 403.794 20.4882 403.794 22.0779 403.794C22.0779 409.397 22.0779 415.088 22.0779 420.692C20.3999 420.692 18.722 420.692 17.0441 420.692C17.0441 418.853 17.0441 417.014 17.0441 415.088C15.1012 415.263 13.335 415.263 11.4805 415.263Z" fill="white"/>
<path d="M11.4806 -2.66342e-05C11.4806 1.92614 11.4806 3.93986 11.4806 5.86603C9.71438 5.86603 7.85984 5.86603 5.74036 5.86603C5.91699 3.76476 5.65203 1.92614 5.74034 -2.67027e-05C7.59489 -2.66805e-05 9.71438 -2.66553e-05 11.4806 -2.66342e-05Z" fill="white"/>
<path d="M22.0777 17.7732C20.4881 17.7732 18.8985 17.7732 17.0439 17.7732C17.0439 15.4968 17.0439 13.3955 17.0439 11.2943C18.7219 11.2943 20.3998 11.2943 22.0777 11.2943C22.0777 13.4831 22.0777 15.6719 22.0777 17.7732Z" fill="white"/>
<path d="M17.0439 98.6721C17.0439 96.5708 17.0439 94.4696 17.0439 92.1932C18.8985 92.1932 20.4881 92.1932 22.0777 92.1932C22.0777 94.2945 22.0777 96.4833 22.0777 98.5845C20.3998 98.5845 18.7219 98.6721 17.0439 98.6721Z" fill="white"/>
<path d="M22.0777 156.107C20.4881 156.107 18.8985 156.107 17.0439 156.107C17.0439 153.83 17.0439 151.729 17.0439 149.628C18.7219 149.628 20.3998 149.628 22.0777 149.628C22.0777 151.817 22.0777 154.006 22.0777 156.107Z" fill="white"/>
<path d="M17.0439 237.006C17.0439 234.904 17.0439 232.803 17.0439 230.527C18.8985 230.527 20.4881 230.527 22.0777 230.527C22.0777 232.628 22.0777 234.817 22.0777 236.918C20.3998 236.918 18.7219 237.006 17.0439 237.006Z" fill="white"/>
<path d="M17.0439 260.032C17.0439 257.931 17.0439 255.917 17.0439 253.553C18.8985 253.553 20.4881 253.553 22.0777 253.553C22.0777 255.654 22.0777 257.843 22.0777 259.944C20.3998 260.032 18.7219 260.032 17.0439 260.032Z" fill="white"/>
<path d="M17.0439 398.366C17.0439 396.264 17.0439 394.251 17.0439 391.887C18.8985 391.887 20.4881 391.887 22.0777 391.887C22.0777 393.988 22.0777 396.177 22.0777 398.278C20.3998 398.366 18.7219 398.366 17.0439 398.366Z" fill="white"/>
<path d="M22.078 179.133C20.4884 179.133 18.9871 179.133 17.3092 179.133C17.3092 177.12 17.3092 175.106 17.3092 173.005C18.8988 173.005 20.4884 173.005 22.078 173.005C22.078 175.106 22.078 177.12 22.078 179.133Z" fill="white"/>
<path d="M22.0777 317.467C20.4881 317.467 18.8985 317.467 17.2206 317.467C17.2206 315.366 17.2206 313.352 17.2206 311.338C18.8985 311.338 20.4881 311.338 22.0777 311.338C22.0777 313.439 22.0777 315.453 22.0777 317.467Z" fill="white"/>
<path d="M17.0439 5.86603C17.0439 4.46518 17.1323 2.97676 17.1323 1.57591C17.1323 1.0506 17.3089 0.52529 17.3089 -2.66997e-05C18.8985 -2.66808e-05 20.4881 -2.66618e-05 21.9894 -2.66439e-05C21.9894 1.92614 21.9894 3.85231 21.9894 5.86603C20.3998 5.77847 18.7219 5.86603 17.0439 5.86603Z" fill="white"/>
<path d="M22.078 86.6773C20.4884 86.6773 18.9871 86.6773 17.3092 86.6773C17.3092 84.6636 17.3092 82.9125 17.3092 80.8113C18.8988 80.8113 20.4884 80.8113 22.078 80.8113C22.078 82.7374 22.078 84.6636 22.078 86.6773Z" fill="white"/>
<path d="M22.078 225.011C20.4884 225.011 18.9871 225.011 17.3092 225.011C17.3092 222.997 17.3092 221.246 17.3092 219.145C18.8988 219.145 20.4884 219.145 22.078 219.145C22.078 221.071 22.078 222.997 22.078 225.011Z" fill="white"/>
<path d="M22.0777 386.371C20.3998 386.371 18.7219 386.371 17.0439 386.371L17.1323 386.458C17.1323 384.62 17.1323 382.694 17.1323 380.855L17.0439 380.943C18.7219 380.943 20.3998 380.943 22.0777 380.943C22.0777 382.694 22.0777 384.532 22.0777 386.371Z" fill="white"/>
<path d="M17.0439 28.8924C17.0439 27.1413 17.0439 25.3027 17.0439 23.3766C18.8985 23.3766 20.4881 23.3766 22.0777 23.3766C22.0777 25.2152 22.0777 27.0538 22.0777 28.8924C20.3998 28.8924 18.7219 28.8924 17.0439 28.8924Z" fill="white"/>
<path d="M17.0439 52.269C17.0439 50.4304 17.0439 48.5918 17.0439 46.6656C18.8985 46.6656 20.4881 46.6656 22.0777 46.6656C22.0777 48.5042 22.0777 50.3428 22.0777 52.1815C20.3998 52.1815 18.7219 52.269 17.0439 52.269Z" fill="white"/>
<path d="M17.0439 57.6974C18.7219 57.6974 20.3998 57.6974 22.0777 57.6974C22.0777 59.536 22.0777 61.3746 22.0777 63.2133C20.4881 63.2133 18.8985 63.2133 17.0439 63.2133C17.0439 61.3746 17.0439 59.536 17.0439 57.6974Z" fill="white"/>
<path d="M17.0439 75.2953C17.0439 73.4567 17.0439 71.7057 17.0439 69.6919C18.8985 69.6919 20.4881 69.6919 22.0777 69.6919C22.0777 71.5306 22.0777 73.3692 22.0777 75.2078C20.3998 75.2953 18.7219 75.2953 17.0439 75.2953Z" fill="white"/>
<path d="M22.0777 375.252C20.3998 375.252 18.7219 375.252 17.0439 375.252C17.0439 373.413 17.0439 371.575 17.0439 369.648C18.8985 369.648 20.4881 369.648 22.0777 369.648C22.0777 371.575 22.0777 373.413 22.0777 375.252Z" fill="white"/>
<path d="M17.0439 104.1C18.7219 104.1 20.3998 104.1 22.0777 104.1C22.0777 105.939 22.0777 107.778 22.0777 109.616C20.4881 109.616 18.8985 109.616 17.0439 109.616C17.0439 107.778 17.0439 105.939 17.0439 104.1Z" fill="white"/>
<path d="M17.0439 144.2C17.0439 142.361 17.0439 140.61 17.0439 138.596C18.8985 138.596 20.4881 138.596 22.0777 138.596C22.0777 140.435 22.0777 142.273 22.0777 144.112C20.3998 144.112 18.7219 144.2 17.0439 144.2Z" fill="white"/>
<path d="M17.0439 305.56C17.0439 303.808 17.0439 301.97 17.0439 300.044C18.8985 300.044 20.4881 300.044 22.0777 300.044C22.0777 301.882 22.0777 303.721 22.0777 305.56C20.3998 305.56 18.7219 305.56 17.0439 305.56Z" fill="white"/>
<path d="M17.0439 288.837C18.7219 288.837 20.3998 288.837 22.0777 288.837C22.0777 290.676 22.0777 292.514 22.0777 294.353C20.4881 294.353 18.8985 294.353 17.0439 294.353C17.0439 292.514 17.0439 290.676 17.0439 288.837Z" fill="white"/>
<path d="M17.0439 328.936C17.0439 327.098 17.0439 325.259 17.0439 323.333C18.8985 323.333 20.4881 323.333 22.0777 323.333C22.0777 325.171 22.0777 327.01 22.0777 328.849C20.3998 328.849 18.7219 328.936 17.0439 328.936Z" fill="white"/>
<path d="M22.0777 282.446C20.3998 282.446 18.7219 282.446 17.0439 282.446C17.0439 280.607 17.0439 278.856 17.0439 276.842C18.8985 276.842 20.4881 276.842 22.0777 276.842C22.0777 278.768 22.0777 280.607 22.0777 282.446Z" fill="white"/>
<path d="M22.0777 248.037C20.4881 248.037 18.8985 248.037 17.0439 248.037C17.0439 246.111 17.0439 244.273 17.0439 242.434C18.7219 242.434 20.3998 242.434 22.0777 242.434C22.0777 244.36 22.0777 246.199 22.0777 248.037Z" fill="white"/>
<path d="M17.0439 334.452C18.7219 334.452 20.3998 334.452 22.0777 334.452C22.0777 336.291 22.0777 338.129 22.0777 339.968C20.3998 339.968 18.7219 339.968 17.0439 339.968L17.1323 340.055C17.1323 338.129 17.1323 336.291 17.0439 334.452Z" fill="white"/>
<path d="M17.0439 213.629C17.0439 211.878 17.0439 210.039 17.0439 208.026C18.8985 208.026 20.4881 208.026 22.0777 208.026C22.0777 209.864 22.0777 211.703 22.0777 213.542C20.3998 213.629 18.7219 213.629 17.0439 213.629Z" fill="white"/>
<path d="M22.0777 201.634C20.4881 201.634 18.8985 201.634 17.0439 201.634C17.0439 199.708 17.0439 197.87 17.0439 196.031C18.7219 196.031 20.3998 196.031 22.0777 196.031C22.0777 197.957 22.0777 199.796 22.0777 201.634Z" fill="white"/>
<path d="M22.0777 190.515C20.3998 190.515 18.7219 190.515 17.0439 190.515C17.0439 188.677 17.0439 186.838 17.0439 184.912C18.8985 184.912 20.4881 184.912 22.0777 184.912C22.0777 186.838 22.0777 188.677 22.0777 190.515Z" fill="white"/>
<path d="M17.0439 346.447C18.7219 346.447 20.3998 346.447 22.0777 346.447C22.0777 348.285 22.0777 350.124 22.0777 351.963C20.3998 351.963 18.7219 351.963 17.0439 351.963L17.1323 352.05C17.1323 350.124 17.1323 348.198 17.0439 346.447Z" fill="white"/>
<path d="M17.0439 167.226C17.0439 165.475 17.0439 163.636 17.0439 161.71C18.8985 161.71 20.4881 161.71 22.0777 161.71C22.0777 163.549 22.0777 165.387 22.0777 167.226C20.3998 167.226 18.7219 167.226 17.0439 167.226Z" fill="white"/>
<path d="M17.0439 120.823C17.0439 119.072 17.0439 117.321 17.0439 115.307C18.8985 115.307 20.4881 115.307 22.0777 115.307C22.0777 117.146 22.0777 118.984 22.0777 120.823C20.3998 120.823 18.7219 120.823 17.0439 120.823Z" fill="white"/>
<path d="M22.0777 132.73C20.4881 132.73 18.8985 132.73 17.2206 132.73C17.2206 130.892 17.2206 129.228 17.2206 127.214C18.8985 127.214 20.4881 127.214 22.0777 127.214C22.0777 129.053 22.0777 130.892 22.0777 132.73Z" fill="white"/>
<path d="M22.0777 271.064C20.4881 271.064 18.8985 271.064 17.2206 271.064C17.2206 269.225 17.2206 267.562 17.2206 265.548C18.8985 265.548 20.4881 265.548 22.0777 265.548C22.0777 267.387 22.0777 269.225 22.0777 271.064Z" fill="white"/>
<path d="M22.078 40.2742C20.4884 40.2742 18.9871 40.2742 17.3092 40.2742C17.3092 38.3481 17.3092 36.5095 17.3092 34.7584C18.8988 34.7584 20.4884 34.7584 22.078 34.7584C22.078 36.5095 22.078 38.4356 22.078 40.2742Z" fill="white"/>
<path d="M22.078 363.344C20.4884 363.344 18.9871 363.344 17.3092 363.344C17.3092 361.418 17.3092 359.667 17.3092 357.829C18.8988 357.829 20.4884 357.829 22.078 357.829C22.078 359.58 22.078 361.506 22.078 363.344Z" fill="white"/>
<path d="M11.4804 391.887C11.4804 393.988 11.4804 396.089 11.4804 398.278C13.4233 398.278 15.2778 398.278 17.1323 398.278C17.1323 400.029 17.1323 401.868 17.1323 403.882C15.3661 403.882 13.5999 403.882 11.5687 403.882C11.5687 405.808 11.5687 407.646 11.5687 409.485C9.62586 409.485 7.85963 409.485 6.00509 409.485C6.00509 407.734 6.00509 405.983 6.00509 403.882C3.97392 403.882 2.11938 403.882 0.353149 403.882C0.35315 402.043 0.35315 400.204 0.35315 398.366C2.20769 398.366 3.97392 398.366 5.91678 398.366C5.91678 396.089 5.91678 393.988 5.91678 391.887L5.82846 391.974C7.77132 391.974 9.62586 391.974 11.4804 391.887Z" fill="white"/>
<path d="M17.1324 375.252C17.1324 377.09 17.1324 379.016 17.0441 380.855L17.1324 380.768C15.2779 380.768 13.5116 380.768 11.4805 380.768C11.4805 382.781 11.4805 384.532 11.4805 386.371C9.62591 386.371 7.68306 386.371 5.82852 386.371C5.82852 384.532 5.82852 382.694 5.82852 380.768C3.79735 380.768 2.03112 380.768 0.264893 380.768C0.264893 379.016 0.264893 377.178 0.264893 375.252C2.11943 375.252 3.88567 375.252 5.82852 375.252C5.82852 373.326 5.82852 371.574 5.82852 369.648C7.68306 369.648 9.44929 369.648 11.3921 369.648C11.3921 371.399 11.3921 373.15 11.3921 375.252C13.4233 375.252 15.2779 375.252 17.1324 375.252Z" fill="white"/>
<path d="M0.0882569 409.572C0.0882569 411.499 0.0882569 413.337 0.0882568 415.263C0.176568 415.263 0.26488 415.263 0.26488 415.263C0.26488 415.263 0.26488 415.263 0.353191 415.263L5.82851 415.263L5.82851 409.572L1.23631 409.572C0.794749 409.572 0.441503 409.572 0.0882569 409.572Z" fill="white"/>
<path d="M5.82874 253.553C7.59497 253.553 9.44951 253.553 11.4807 253.553C11.4807 255.829 11.4807 257.931 11.4807 260.032C9.71444 260.032 7.8599 260.032 5.82874 260.032C5.82874 257.756 5.82874 255.654 5.82874 253.553Z" fill="white"/>
<path d="M5.82874 230.527C7.68328 230.527 9.44951 230.527 11.4807 230.527C11.4807 232.803 11.4807 234.904 11.4807 237.006C9.71444 237.006 7.8599 237.006 5.82874 237.006C5.82874 234.729 5.82874 232.628 5.82874 230.527Z" fill="white"/>
<path d="M11.4805 120.735C13.3351 120.735 15.2779 120.735 17.1325 120.735C17.1325 122.837 17.1325 124.938 17.1325 127.302C15.1896 127.214 13.2468 127.127 11.3922 127.039C11.3922 125.025 11.3922 122.837 11.4805 120.735Z" fill="white"/>
<path d="M5.82846 46.7532C4.06223 46.6656 2.20769 46.5781 0.353149 46.4905C0.353149 44.3893 0.353149 42.3756 0.353149 40.0992C2.296 40.1867 4.15055 40.2743 6.00509 40.3618C5.91678 42.5506 5.82846 44.6519 5.82846 46.7532C5.74015 46.7532 5.82846 46.7532 5.82846 46.7532Z" fill="white"/>
<path d="M5.91697 63.3007C5.91697 65.4895 5.91697 67.5908 5.91697 69.7796C4.15073 69.7796 2.29619 69.7796 0.44165 69.7796C0.44165 67.5908 0.44165 65.577 0.44165 63.3007C2.20788 63.3007 4.06242 63.3007 5.91697 63.3007Z" fill="white"/>
<path d="M11.4807 149.628C11.4807 151.729 11.4807 153.743 11.4807 156.107C9.53782 156.107 7.68328 156.107 5.82874 156.107C5.82874 154.006 5.82874 151.992 5.82874 149.628C7.8599 149.628 9.62613 149.628 11.4807 149.628Z" fill="white"/>
<path d="M17.1325 282.446C17.1325 284.634 17.1325 286.736 17.1325 288.925C15.2779 288.925 13.3351 288.925 11.4805 288.925C11.4805 286.823 11.3922 284.722 11.3922 282.621C13.2468 282.533 15.1896 282.533 17.1325 282.446Z" fill="white"/>
<path d="M5.82874 92.1932C7.68328 92.1932 9.44951 92.1932 11.4807 92.1932C11.4807 94.4696 11.4807 96.5708 11.4807 98.6721C9.71444 98.6721 7.8599 98.6721 5.82874 98.6721C5.82874 96.3957 5.82874 94.2945 5.82874 92.1932Z" fill="white"/>
<path d="M5.91697 201.634C5.91697 203.823 5.91697 205.924 5.91697 208.113C4.15073 208.113 2.29619 208.113 0.44165 208.113C0.44165 206.012 0.44165 203.911 0.44165 201.634C2.20788 201.634 4.06242 201.634 5.91697 201.634Z" fill="white"/>
<path d="M11.4807 11.2943C11.4807 13.3955 11.4807 15.4093 11.4807 17.7732C9.53782 17.7732 7.68328 17.7732 5.82874 17.7732C5.82874 15.6719 5.82874 13.6582 5.82874 11.2943C7.8599 11.2943 9.62613 11.2943 11.4807 11.2943Z" fill="white"/>
<path d="M0.264893 346.359C0.264893 344.258 0.264893 342.244 0.264893 339.968C2.20775 339.968 4.06229 339.968 5.82852 339.968C5.82852 342.157 5.82852 344.258 5.82852 346.447L5.82852 346.359C4.06229 346.359 2.20775 346.359 0.264893 346.359Z" fill="white"/>
<path d="M5.74048 179.046C5.74048 177.12 5.74048 175.106 5.74048 173.005C7.77164 173.005 9.53787 173.005 11.3924 173.005C11.3924 175.018 11.3924 177.032 11.3924 179.308C9.53787 179.221 7.59502 179.133 5.74048 179.046Z" fill="white"/>
<path d="M11.304 363.432C13.1585 363.344 15.013 363.257 17.0442 363.169C17.0442 365.446 17.0442 367.459 17.0442 369.473C15.1897 369.473 13.5117 369.473 11.6572 369.473C11.5689 367.459 11.4806 365.446 11.304 363.432C11.3923 363.432 11.304 363.432 11.304 363.432Z" fill="white"/>
<path d="M6.00549 311.338C7.77172 311.338 9.53795 311.338 11.3925 311.338C11.3925 313.352 11.3925 315.453 11.3925 317.554C9.62627 317.554 7.86004 317.554 6.00549 317.554C6.00549 315.541 6.00549 313.439 6.00549 311.338Z" fill="white"/>
<path d="M6.00509 363.432C6.00509 365.446 6.00509 367.372 6.00509 369.473C4.06223 369.473 2.296 369.473 0.353149 369.473C0.353149 367.459 0.353149 365.446 0.353149 363.169C2.296 363.257 4.15055 363.344 6.00509 363.432Z" fill="white"/>
<path d="M5.74015 179.046C5.74015 181.059 5.74015 183.161 5.74015 185.174C3.97392 185.087 2.20769 184.999 0.353149 184.912C0.353149 183.073 0.353149 181.322 0.353149 179.483C2.20769 179.221 3.97392 179.133 5.74015 179.046Z" fill="white"/>
<path d="M11.4807 80.8113C11.4807 82.6499 11.4807 84.576 11.4807 86.6773C9.53782 86.6773 7.68328 86.6773 5.82874 86.6773C5.82874 84.8387 5.82874 82.9125 5.82874 80.8113C7.8599 80.8113 9.71444 80.8113 11.4807 80.8113Z" fill="white"/>
<path d="M11.4807 219.145C11.4807 220.983 11.4807 222.91 11.4807 225.011C9.53782 225.011 7.68328 225.011 5.82874 225.011C5.82874 223.172 5.82874 221.246 5.82874 219.145C7.8599 219.145 9.71444 219.145 11.4807 219.145Z" fill="white"/>
<path d="M17.0441 351.875C17.0441 353.714 17.0441 355.552 17.0441 357.479C15.2779 357.479 13.5116 357.479 11.4805 357.479C11.4805 355.64 11.4805 353.801 11.4805 351.875C13.335 351.963 15.1896 351.963 17.0441 351.875Z" fill="white"/>
<path d="M17.1325 328.849C17.1325 330.687 17.1325 332.613 17.0441 334.452L17.1325 334.365C15.2779 334.365 13.3351 334.365 11.4805 334.365C11.4805 332.526 11.3922 330.687 11.3922 328.936C13.2468 328.936 15.1896 328.936 17.1325 328.849Z" fill="white"/>
<path d="M11.4805 305.472C13.335 305.472 15.2779 305.472 17.1324 305.472C17.1324 307.311 17.1324 309.149 17.1324 311.075C15.2779 311.075 13.5116 311.075 11.4805 311.075C11.4805 309.237 11.4805 307.398 11.4805 305.472Z" fill="white"/>
<path d="M11.4805 259.944C13.3351 259.944 15.2779 259.944 17.1325 259.944C17.1325 261.783 17.1325 263.622 17.1325 265.635C15.1896 265.548 13.2468 265.46 11.3922 265.373C11.3922 263.622 11.3922 261.783 11.4805 259.944Z" fill="white"/>
<path d="M17.1324 236.918C17.1324 238.757 17.1324 240.683 17.1324 242.521C15.2779 242.521 13.335 242.521 11.4805 242.521C11.4805 240.683 11.4805 238.757 11.4805 236.918C13.335 236.918 15.1896 236.918 17.1324 236.918Z" fill="white"/>
<path d="M11.4805 213.541C13.335 213.541 15.2779 213.541 17.1324 213.541C17.1324 215.38 17.1324 217.219 17.1324 219.145C15.1896 219.145 13.335 219.145 11.4805 219.145C11.4805 217.306 11.4805 215.468 11.4805 213.541Z" fill="white"/>
<path d="M17.1325 190.515C17.1325 192.354 17.1325 194.28 17.1325 196.118C15.2779 196.118 13.3351 196.118 11.4805 196.118C11.4805 194.28 11.3922 192.529 11.3922 190.69C13.2468 190.603 15.1896 190.603 17.1325 190.515Z" fill="white"/>
<path d="M11.4805 167.138C13.335 167.138 15.2779 167.138 17.1324 167.138C17.1324 168.977 17.1324 170.816 17.1324 172.742C15.2779 172.742 13.5116 172.742 11.4805 172.742C11.4805 170.903 11.4805 169.065 11.4805 167.138Z" fill="white"/>
<path d="M17.1325 144.112C17.1325 145.951 17.1325 147.877 17.1325 149.715C15.2779 149.715 13.3351 149.715 11.4805 149.715C11.4805 147.877 11.3922 146.126 11.3922 144.287C13.2468 144.2 15.1896 144.2 17.1325 144.112Z" fill="white"/>
<path d="M17.1324 98.5845C17.1324 100.423 17.1324 102.349 17.1324 104.188C15.2779 104.188 13.335 104.188 11.4805 104.188C11.4805 102.349 11.4805 100.423 11.4805 98.5845C13.335 98.5845 15.1896 98.5845 17.1324 98.5845Z" fill="white"/>
<path d="M11.4805 75.2079C13.335 75.2079 15.2779 75.2079 17.1324 75.2079C17.1324 77.0465 17.1324 78.8852 17.1324 80.8113C15.1896 80.8113 13.335 80.8113 11.4805 80.8113C11.4805 78.9727 11.4805 77.1341 11.4805 75.2079Z" fill="white"/>
<path d="M17.1325 52.1814C17.1325 54.0201 17.1325 55.9462 17.1325 57.7849C15.2779 57.7849 13.3351 57.7849 11.4805 57.7849C11.4805 55.9462 11.3922 54.1952 11.3922 52.3566C13.2468 52.269 15.1896 52.269 17.1325 52.1814Z" fill="white"/>
<path d="M11.4805 28.8048C13.335 28.8048 15.2779 28.8048 17.1324 28.8048C17.1324 30.6434 17.1324 32.482 17.1324 34.4082C15.2779 34.4082 13.5116 34.4082 11.4805 34.4082C11.4805 32.5696 11.4805 30.731 11.4805 28.8048Z" fill="white"/>
<path d="M17.1324 5.77837C17.1324 7.61698 17.1324 9.54316 17.1324 11.3818C15.2779 11.3818 13.335 11.3818 11.4805 11.3818C11.4805 9.54316 11.4805 7.61698 11.4805 5.77837C13.335 5.77837 15.1896 5.77837 17.1324 5.77837Z" fill="white"/>
<path d="M5.82874 138.684C7.68328 138.684 9.53782 138.684 11.3924 138.684C11.3924 140.522 11.3924 142.361 11.3924 144.287C9.62613 144.287 7.94821 144.287 5.82874 144.287C5.82874 142.273 5.82874 140.435 5.82874 138.684Z" fill="white"/>
<path d="M5.91697 109.704C5.91697 111.542 5.91697 113.469 5.91697 115.307C4.15073 115.307 2.29619 115.307 0.44165 115.307C0.44165 113.469 0.44165 111.717 0.44165 109.704C2.20788 109.704 4.06242 109.704 5.91697 109.704Z" fill="white"/>
<path d="M5.91697 86.5898C5.91697 88.4284 5.91697 90.3546 5.91697 92.1932C4.15073 92.1932 2.29619 92.1932 0.44165 92.1932C0.44165 90.267 0.44165 88.5159 0.44165 86.5898C2.20788 86.5898 4.06242 86.5898 5.91697 86.5898Z" fill="white"/>
<path d="M5.82874 161.623C7.59497 161.623 9.44951 161.623 11.4807 161.623C11.4807 163.549 11.4807 165.387 11.4807 167.226C9.71444 167.226 7.8599 167.226 5.82874 167.226C5.82874 165.3 5.82874 163.461 5.82874 161.623Z" fill="white"/>
<path d="M5.91697 17.7732C5.91697 19.6119 5.91697 21.538 5.91697 23.3766C4.15073 23.3766 2.29619 23.3766 0.44165 23.3766C0.44165 21.538 0.44165 19.787 0.44165 17.7732C2.20788 17.7732 4.06242 17.7732 5.91697 17.7732Z" fill="white"/>
<path d="M5.74048 185.087C7.59502 184.999 9.36125 184.912 11.3041 184.824C11.3041 186.838 11.3041 188.764 11.3041 190.69C9.53787 190.603 7.77164 190.515 5.74048 190.428C5.82879 188.677 5.82879 186.838 5.74048 185.087C5.82879 185.087 5.74048 185.087 5.74048 185.087Z" fill="white"/>
<path d="M11.4807 196.031C11.4807 197.782 11.4807 199.621 11.4807 201.634C9.53782 201.634 7.68328 201.634 5.82874 201.634C5.82874 199.883 5.82874 198.045 5.82874 196.031C7.8599 196.031 9.62613 196.031 11.4807 196.031Z" fill="white"/>
<path d="M5.82874 208.026C7.59497 208.026 9.44951 208.026 11.4807 208.026C11.4807 209.952 11.4807 211.79 11.4807 213.629C9.71444 213.629 7.8599 213.629 5.82874 213.629C5.82874 211.703 5.82874 209.864 5.82874 208.026Z" fill="white"/>
<path d="M6.00549 363.432C6.00549 361.593 6.00549 359.667 6.00549 357.654C7.77172 357.654 9.53795 357.654 11.3042 357.654C11.3042 359.58 11.3042 361.506 11.3042 363.345C9.53795 363.432 7.77172 363.432 6.00549 363.432Z" fill="white"/>
<path d="M5.82874 351.963C5.82874 350.124 5.82874 348.198 5.82874 346.359L5.82874 346.447C7.68328 346.447 9.62613 346.447 11.4807 346.447C11.4807 348.285 11.4807 350.212 11.4807 352.05C9.62613 351.963 7.77159 351.963 5.82874 351.963Z" fill="white"/>
<path d="M11.4807 288.837C11.4807 290.588 11.4807 292.427 11.4807 294.44C9.53782 294.44 7.68328 294.44 5.82874 294.44C5.82874 292.689 5.82874 290.851 5.82874 288.837C7.8599 288.837 9.62613 288.837 11.4807 288.837Z" fill="white"/>
<path d="M11.3924 282.533C9.62613 282.533 7.94821 282.533 5.82874 282.533C5.82874 280.607 5.82874 278.768 5.82874 276.93C7.68328 276.93 9.53782 276.93 11.3924 276.93C11.3924 278.856 11.3924 280.695 11.3924 282.533C11.304 282.621 11.3924 282.533 11.3924 282.533Z" fill="white"/>
<path d="M11.3925 265.373C11.3925 267.212 11.3925 269.138 11.3925 271.064C9.62627 271.064 7.86004 271.064 6.00549 271.064C6.00549 269.225 6.00549 267.474 6.00549 265.636C7.86004 265.636 9.62627 265.548 11.3925 265.373C11.3925 265.46 11.3925 265.373 11.3925 265.373Z" fill="white"/>
<path d="M5.91699 339.968C5.91699 338.217 5.91699 336.378 5.91699 334.452C7.85985 334.452 9.71439 334.452 11.4806 334.452C11.4806 336.291 11.4806 338.217 11.4806 340.055C9.62608 339.968 7.77153 339.968 5.91699 339.968Z" fill="white"/>
<path d="M5.82874 299.956C7.59497 299.956 9.44951 299.956 11.4807 299.956C11.4807 301.882 11.4807 303.721 11.4807 305.56C9.71444 305.56 7.8599 305.56 5.82874 305.56C5.82874 303.633 5.82874 301.795 5.82874 299.956Z" fill="white"/>
<path d="M11.3924 328.936C9.62613 328.936 7.8599 328.936 5.82874 328.936C5.82874 326.922 5.82874 325.171 5.82874 323.42C7.68328 323.333 9.53782 323.245 11.3924 323.158C11.3924 325.259 11.3924 327.185 11.3924 328.936C11.304 329.024 11.3924 328.936 11.3924 328.936Z" fill="white"/>
<path d="M11.4807 242.434C11.4807 244.185 11.4807 246.024 11.4807 248.037C9.53782 248.037 7.68328 248.037 5.82874 248.037C5.82874 246.286 5.82874 244.448 5.82874 242.434C7.8599 242.434 9.62613 242.434 11.4807 242.434Z" fill="white"/>
<path d="M0.264893 386.371C2.11943 386.371 3.97398 386.371 5.82852 386.371C5.82852 388.21 5.82852 390.136 5.82852 391.974L5.91683 391.887C4.06229 391.887 2.20775 391.887 0.264893 391.887C0.264893 390.048 0.264893 388.21 0.264893 386.371Z" fill="white"/>
<path d="M0.353149 351.963C2.20769 351.963 4.06223 351.875 5.91678 351.875C5.91678 353.714 5.91678 355.552 5.91678 357.479C3.97392 357.479 2.20769 357.479 0.353149 357.479C0.353149 355.64 0.353149 353.801 0.353149 351.963Z" fill="white"/>
<path d="M5.82865 323.42C4.06242 323.333 2.29619 323.245 0.44165 323.07C0.44165 321.231 0.44165 319.48 0.44165 317.642C2.29619 317.642 3.97411 317.642 5.82865 317.642C5.74034 319.656 5.74034 321.582 5.82865 323.42C5.74034 323.508 5.82865 323.42 5.82865 323.42Z" fill="white"/>
<path d="M5.91697 294.44C5.91697 296.279 5.91697 298.205 5.91697 300.044C4.15073 300.044 2.29619 300.044 0.44165 300.044C0.44165 298.205 0.44165 296.454 0.44165 294.44C2.20788 294.44 4.06242 294.44 5.91697 294.44Z" fill="white"/>
<path d="M5.82874 23.289C7.59497 23.289 9.44951 23.289 11.4807 23.289C11.4807 25.2152 11.4807 27.0538 11.4807 28.8924C9.71444 28.8924 7.8599 28.8924 5.82874 28.8924C5.82874 26.9662 5.82874 25.1276 5.82874 23.289Z" fill="white"/>
<path d="M6.00549 40.3619C6.00549 38.5233 6.00549 36.5971 6.00549 34.6709C7.77172 34.6709 9.53795 34.6709 11.3925 34.6709C11.3925 36.5095 11.3925 38.1731 11.3925 40.0117C9.62627 40.1868 7.77172 40.2743 6.00549 40.3619Z" fill="white"/>
<path d="M5.74048 46.7532C7.59502 46.6657 9.36125 46.5781 11.3041 46.4906C11.3041 48.5043 11.3041 50.4305 11.3041 52.3566C9.53787 52.2691 7.77164 52.1815 5.74048 52.094C5.82879 50.3429 5.82879 48.5043 5.74048 46.7532C5.82879 46.7532 5.74048 46.7532 5.74048 46.7532Z" fill="white"/>
<path d="M11.4807 57.6974C11.4807 59.4484 11.4807 61.2871 11.4807 63.3008C9.53782 63.3008 7.68328 63.3008 5.82874 63.3008C5.82874 61.5497 5.82874 59.7111 5.82874 57.6974C7.8599 57.6974 9.62613 57.6974 11.4807 57.6974Z" fill="white"/>
<path d="M5.82846 277.017C4.06223 277.017 2.20769 277.017 0.353149 277.017C0.353149 275.004 0.353149 273.253 0.353149 271.326C2.20769 271.326 3.97392 271.326 5.74015 271.326C5.82846 273.253 5.82846 275.179 5.82846 277.017Z" fill="white"/>
<path d="M5.82874 69.6919C7.68328 69.6919 9.44951 69.6919 11.4807 69.6919C11.4807 71.6181 11.4807 73.4567 11.4807 75.2953C9.71444 75.2953 7.8599 75.2953 5.82874 75.2953C5.82874 73.3692 5.82874 71.5306 5.82874 69.6919Z" fill="white"/>
<path d="M5.91697 248.037C5.91697 249.876 5.91697 251.802 5.91697 253.641C4.15073 253.641 2.29619 253.641 0.44165 253.641C0.44165 251.802 0.44165 250.051 0.44165 248.037C2.20788 248.037 4.06242 248.037 5.91697 248.037Z" fill="white"/>
<path d="M5.91697 224.923C5.91697 226.762 5.91697 228.688 5.91697 230.527C4.15073 230.527 2.29619 230.527 0.44165 230.527C0.44165 228.601 0.44165 226.85 0.44165 224.923C2.20788 224.923 4.06242 224.923 5.91697 224.923Z" fill="white"/>
<path d="M5.91697 156.107C5.91697 157.945 5.91697 159.872 5.91697 161.71C4.15073 161.71 2.29619 161.71 0.44165 161.71C0.44165 159.872 0.44165 158.121 0.44165 156.107C2.20788 156.107 4.06242 156.107 5.91697 156.107Z" fill="white"/>
<path d="M11.4807 104.1C11.4807 105.852 11.4807 107.69 11.4807 109.704C9.53782 109.704 7.68328 109.704 5.82874 109.704C5.82874 107.953 5.82874 106.114 5.82874 104.1C7.8599 104.1 9.62613 104.1 11.4807 104.1Z" fill="white"/>
<path d="M5.82846 138.684C4.06223 138.684 2.20769 138.684 0.353149 138.684C0.353149 136.67 0.353149 134.919 0.353149 132.993C2.20769 132.993 3.97392 132.993 5.74015 132.993C5.82846 134.919 5.82846 136.845 5.82846 138.684Z" fill="white"/>
<path d="M5.82874 115.22C7.59497 115.22 9.44951 115.22 11.4807 115.22C11.4807 117.146 11.4807 118.984 11.4807 120.823C9.71444 120.823 7.8599 120.823 5.82874 120.823C5.82874 118.897 5.82874 117.058 5.82874 115.22Z" fill="white"/>
<path d="M11.3925 127.039C11.3925 128.878 11.3925 130.804 11.3925 132.73C9.62627 132.73 7.86004 132.73 6.00549 132.73C6.00549 130.892 6.00549 129.141 6.00549 127.302C7.86004 127.302 9.62627 127.214 11.3925 127.039C11.3925 127.127 11.3925 127.039 11.3925 127.039Z" fill="white"/>
<path d="M17.0441 386.371C17.0441 388.122 17.0441 389.961 17.0441 391.887C15.1896 391.887 13.335 391.887 11.4805 391.887L11.5688 391.974C11.5688 390.136 11.5688 388.21 11.5688 386.371C13.335 386.371 15.1896 386.371 17.0441 386.371Z" fill="white"/>
<path d="M17.0441 339.968C17.0441 342.157 17.0441 344.258 17.0441 346.447L17.1324 346.447C15.2779 346.447 13.335 346.447 11.4805 346.447C11.4805 344.258 11.4805 342.157 11.4805 339.968C13.335 339.968 15.1896 339.968 17.0441 339.968Z" fill="white"/>
</svg>
