<svg width="20" height="20" viewBox="0 0 20 20" fill="none" xmlns="http://www.w3.org/2000/svg">
<rect x="0.5" y="3.0498" width="16.2826" height="16.2826" stroke="white"/>
<rect x="2.40332" width="17.2826" height="17.2826" fill="white"/>
<g clip-path="url(#clip0)">
<path d="M16.18 11.37L15.43 5.71C15.3 4.73 14.46 4 13.48 4H7.92C6.94 4 6.1 4.73 5.97 5.7L5.2 11.41C5.08 11.66 5 11.93 5 12.22V12.68C5 13.67 5.81 14.48 6.8 14.48H14.6C15.59 14.48 16.4 13.67 16.4 12.68V12.22C16.4 11.91 16.31 11.62 16.18 11.37ZM15.54 12.68C15.54 13.2 15.12 13.63 14.59 13.63H6.8C6.28 13.63 5.85 13.21 5.85 12.68V12.22C5.85 11.7 6.27 11.27 6.8 11.27H14.6C15.12 11.27 15.55 11.69 15.55 12.22V12.68H15.54ZM14.58 5.86L15.2 10.53C15.01 10.46 14.81 10.42 14.6 10.42H6.8C6.58 10.42 6.38 10.46 6.18 10.54L6.82 5.82C6.89 5.27 7.37 4.86 7.92 4.86H13.48C14.03 4.86 14.5 5.27 14.58 5.82V5.86Z" fill="#4D4C4F"/>
<path d="M14.2499 11.77C13.8799 11.77 13.5699 12.07 13.5699 12.45C13.5699 12.83 13.8699 13.13 14.2499 13.13C14.6299 13.13 14.9299 12.83 14.9299 12.45C14.9299 12.07 14.6199 11.77 14.2499 11.77ZM14.2499 12.78C14.0699 12.78 13.9199 12.62 13.9199 12.45C13.9199 12.28 14.0799 12.12 14.2499 12.12C14.4199 12.12 14.5799 12.28 14.5799 12.45C14.5799 12.62 14.4299 12.78 14.2499 12.78Z" fill="#4D4C4F"/>
<path d="M9.10004 9.9H12.3C12.54 9.9 12.73 9.71 12.73 9.47V7.64001C12.73 7.40001 12.54 7.21 12.3 7.21H12.27V6.76C12.27 6.35 12.13 5.99 11.85 5.74C11.58 5.5 11.2 5.38 10.75 5.38H10.65C10.21 5.38 9.82004 5.5 9.55004 5.75C9.27004 6 9.13004 6.35 9.13004 6.77V7.22H9.10004C8.86004 7.22 8.67004 7.41 8.67004 7.65V9.48C8.67004 9.71 8.86004 9.9 9.10004 9.9ZM11.42 7.21H9.98004V6.76C9.98004 6.52 10.07 6.41 10.17 6.34C10.29 6.26 10.46 6.23 10.64 6.23H10.74C10.92 6.23 11.09 6.26 11.21 6.34C11.31 6.41 11.4 6.52 11.4 6.76V7.21H11.42ZM11.87 8.07V9.05H9.52004V8.07H11.87Z" fill="#4D4C4F"/>
</g>
<defs>
<clipPath id="clip0">
<rect width="11.4" height="10.48" fill="white" transform="translate(5 4)"/>
</clipPath>
</defs>
</svg>
