<svg width="20" height="20" viewBox="0 0 20 20" fill="none" xmlns="http://www.w3.org/2000/svg">
<rect x="0.5" y="3.0498" width="16.2826" height="16.2826" stroke="white"/>
<rect x="2.40332" width="17.2826" height="17.2826" fill="white"/>
<path d="M13.3025 14.0587L13.3029 14.0585C13.4333 13.9926 13.5155 13.8596 13.5156 13.713L13.3025 14.0587ZM13.3025 14.0587C13.1721 14.1239 13.0162 14.111 12.8986 14.0246L12.8983 14.0244L10.8051 12.4779L8.71182 14.0244L8.71157 14.0246C8.64349 14.0746 8.56291 14.1 8.48167 14.1C8.42198 14.1 8.36251 14.0862 8.30768 14.0587L8.30729 14.0585C8.17679 13.9926 8.0946 13.8596 8.0946 13.7129V9.61124C7.33373 8.87639 6.90002 7.86481 6.90002 6.8061C6.90002 4.65197 8.65212 2.9 10.8057 2.9C12.9598 2.9 14.7118 4.65211 14.7118 6.8061C14.7118 7.86484 14.2776 8.8764 13.5167 9.61124V12.1628V12.1628L13.5156 13.7129L13.3025 14.0587ZM8.86865 10.1914L8.86867 12.945L10.5749 11.685L10.575 11.6849C10.7121 11.5841 10.898 11.5841 11.035 11.6849L11.0352 11.685L12.7414 12.945V10.1914C12.6813 10.2258 12.6204 10.2588 12.5584 10.2901L12.5581 10.2903C12.552 10.2933 12.5457 10.2965 12.5393 10.2997C12.5158 10.3116 12.4902 10.3245 12.4646 10.3362M8.86865 10.1914L12.1913 10.3452M8.86865 10.1914C8.92872 10.2258 8.98958 10.2588 9.05162 10.2901L9.05192 10.2903L9.05219 10.2904C9.08212 10.3054 9.11313 10.3209 9.14485 10.3359L9.18766 10.2455L9.14449 10.3357C9.22236 10.373 9.30152 10.4067 9.38125 10.4381C9.38413 10.4392 9.38928 10.4414 9.39553 10.4441C9.40888 10.4497 9.42726 10.4575 9.4392 10.462C9.53946 10.4997 9.64001 10.5322 9.74179 10.5614L8.86865 10.1914ZM12.4646 10.3362C12.4648 10.3361 12.465 10.3359 12.4653 10.3358L12.4224 10.2455L12.4639 10.3365C12.4641 10.3364 12.4643 10.3363 12.4646 10.3362ZM12.4646 10.3362C12.3865 10.3733 12.3075 10.4069 12.2279 10.4382L12.1913 10.3452M12.1913 10.3452C12.1835 10.3483 12.1758 10.3516 12.1681 10.3549C12.1572 10.3596 12.1463 10.3642 12.1353 10.3683M12.1913 10.3452L12.2284 10.438C12.2256 10.4391 12.2204 10.4414 12.2139 10.4441C12.2007 10.4497 12.1826 10.4574 12.1706 10.4619M12.1353 10.3683L12.1706 10.4619M12.1353 10.3683L12.1701 10.4621C12.1703 10.462 12.1705 10.4619 12.1706 10.4619M12.1353 10.3683C12.0383 10.4049 11.9403 10.4367 11.8407 10.4653L11.8682 10.5614C11.9701 10.5322 12.0707 10.4996 12.1706 10.4619M11.5557 10.6354C11.5558 10.6354 11.5559 10.6354 11.5561 10.6354L11.5359 10.5374L11.5553 10.6355C11.5555 10.6355 11.5556 10.6355 11.5557 10.6354ZM11.5557 10.6354C11.5291 10.6409 11.5015 10.6456 11.4762 10.6499C11.4674 10.6514 11.4588 10.6528 11.4507 10.6543L11.4496 10.6544C11.3754 10.6665 11.3004 10.677 11.2253 10.6853L11.2143 10.5859M11.5557 10.6354L11.2143 10.5859M11.2143 10.5859L11.2261 10.6852L11.2253 10.6853C11.194 10.689 11.1608 10.6929 11.1268 10.6958L11.1267 10.6958C11.0211 10.7045 10.9137 10.7107 10.805 10.7107C10.6967 10.7107 10.5893 10.7051 10.483 10.6958C10.4829 10.6958 10.4829 10.6958 10.4828 10.6957L11.2143 10.5859ZM13.9364 6.77526C13.9198 5.06299 12.5211 3.67456 10.805 3.67456C9.07857 3.67456 7.67396 5.07915 7.67396 6.80613C7.67396 7.68955 8.05044 8.53311 8.7097 9.12808H8.70993L8.73828 9.15309C9.09693 9.46946 9.51815 9.69649 9.96908 9.82279C10.2393 9.89844 10.5206 9.93757 10.8055 9.93757C11.0903 9.93757 11.371 9.89845 11.6418 9.82279L13.9364 6.77526ZM13.9364 6.77526V6.80613C13.9364 7.68897 13.56 8.53258 12.9017 9.12808H12.9015L12.8732 9.15304C12.514 9.46944 12.0928 9.69647 11.6419 9.82277L13.9364 6.77526ZM11.7626 10.4852L11.7883 10.5818C11.788 10.5819 11.7876 10.582 11.7873 10.5821C11.787 10.5822 11.7867 10.5822 11.7864 10.5823L11.7626 10.4852Z" fill="#4D4C4F" stroke="#4D4C4F" stroke-width="0.2"/>
<path d="M11.5319 5.62517C11.5997 5.59608 11.6404 5.53479 11.6516 5.47309C11.6629 5.41095 11.6458 5.33565 11.582 5.28715L11.2727 5.04442L11.2728 5.04434L11.4924 5.53331M11.5319 5.62517C11.5318 5.62519 11.5317 5.62522 11.5317 5.62525L11.4924 5.53331M11.5319 5.62517C11.5319 5.62514 11.532 5.62511 11.5321 5.62508L11.4924 5.53331M11.5319 5.62517C11.3737 5.69365 11.0923 5.8476 10.6961 6.1668L10.6399 6.11414L10.5946 6.16244L10.5715 6.13932M11.4924 5.53331C11.3159 5.60967 11.0058 5.78144 10.5715 6.13932M10.5715 6.13932L10.5925 6.16474" fill="#4D4C4F" stroke="#4D4C4F" stroke-width="0.2"/>
</svg>
