<svg width="20" height="20" viewBox="0 0 20 20" fill="none" xmlns="http://www.w3.org/2000/svg">
<rect x="0.5" y="3.0498" width="16.2826" height="16.2826" stroke="white"/>
<rect x="2" width="17.2826" height="17.2826" fill="white"/>
<path d="M15.01 7.01C15.01 4.8 13.22 3 11.01 3C8.8 3 7 4.8 7 7.01C7 8.08 7.44 9.09 8.19 9.85V13.92C8.19 14.1 8.29 14.27 8.46 14.35L8.55 14.17V14.18L8.46 14.35C8.53 14.38 8.6 14.4 8.68 14.4C8.78 14.4 8.88 14.37 8.97 14.31L8.85 14.15L8.96 14.31L10.99 12.81L13.02 14.31C13.17 14.42 13.36 14.43 13.53 14.35C13.69 14.27 13.8 14.1 13.8 13.92V12.37V9.84C14.57 9.09 15.01 8.07 15.01 7.01ZM11.29 11.8L11.19 11.95L11.18 11.97L11.29 11.8C11.12 11.67 10.88 11.67 10.71 11.8L10.83 11.96L10.82 11.95L10.72 11.8L9.17 12.95V10.56C9.18 10.57 9.2 10.57 9.21 10.58L9.3 10.4L9.21 10.58C9.24 10.59 9.27 10.61 9.3 10.63C9.38 10.67 9.46 10.7 9.54 10.73C9.55 10.73 9.55 10.74 9.56 10.74C9.57 10.74 9.58 10.75 9.6 10.75C9.7 10.79 9.81 10.82 9.91 10.85C9.94 10.86 9.99 10.88 10 10.88L10.05 10.69L10 10.88C10.08 10.9 10.15 10.92 10.24 10.93C10.28 10.94 10.31 10.94 10.35 10.95L10.38 10.75V10.76L10.34 10.95C10.42 10.97 10.5 10.98 10.57 10.98L10.59 10.78L10.57 10.98C10.59 10.98 10.64 10.99 10.67 10.99C10.78 11.01 10.89 11.01 11 11.01C11.12 11.01 11.23 11 11.33 11C11.37 11 11.4 10.99 11.43 10.99C11.51 10.98 11.58 10.97 11.66 10.96C11.7 10.95 11.74 10.94 11.77 10.93C11.85 10.92 11.93 10.9 12.01 10.88C12.04 10.87 12.07 10.87 12.1 10.86C12.2 10.83 12.3 10.79 12.4 10.76C12.41 10.75 12.43 10.75 12.44 10.75C12.45 10.75 12.46 10.74 12.46 10.74C12.54 10.71 12.62 10.67 12.7 10.64C12.74 10.61 12.78 10.59 12.8 10.58C12.81 10.57 12.83 10.57 12.84 10.56V12.95L11.29 11.8ZM13.01 9.28C12.66 9.58 12.25 9.8 11.81 9.93C11.55 10 11.28 10.04 11.01 10.04C10.73 10.04 10.46 10 10.2 9.93C9.76 9.8 9.35 9.58 9 9.28L8.87 9.43L9 9.28C8.35 8.7 7.97 7.87 7.97 7.01C7.97 5.34 9.33 3.98 11 3.98C12.67 3.98 14.03 5.34 14.03 7.01C14.04 7.87 13.66 8.7 13.01 9.28ZM13.62 13.91H13.66H13.62Z" fill="#4D4C4F"/>
<path d="M12.52 8.02998L12.66 7.88998L11.05 6.37998C11.39 6.11998 11.64 5.97998 11.77 5.91998C11.87 5.87998 11.93 5.77998 11.95 5.68998C11.97 5.59998 11.94 5.48998 11.84 5.40998L11.53 5.16998L11.41 5.31998L11.53 5.15998V5.15998C11.43 5.08998 11.3 5.08998 11.19 5.15998C10.89 5.35998 10.62 5.59998 10.37 5.84998C10.25 5.82998 10.12 5.84998 10.02 5.94998V5.95998L10.17 6.08998L10.02 5.95998C9.93003 6.05998 9.92003 6.19998 9.95003 6.31998C9.60003 6.72998 9.30003 7.15998 9.07003 7.52998C8.97003 7.67998 9.04003 7.84998 9.14003 7.91998C9.24003 7.98998 9.42003 8.01998 9.53003 7.86998C9.87003 7.46998 10.17 7.15998 10.43 6.89998L11.97 8.53998C12.14 8.72998 12.43 8.76998 12.64 8.59998C12.86 8.40998 12.87 8.08998 12.66 7.88998L12.52 8.02998ZM9.39003 7.73998H9.40003H9.39003Z" fill="#4D4C4F"/>
</svg>
