<svg width="20" height="20" viewBox="0 0 20 20" fill="none" xmlns="http://www.w3.org/2000/svg">
<rect x="0.5" y="3.0498" width="16.2826" height="16.2826" stroke="white"/>
<rect x="2.40332" width="17.2826" height="17.2826" fill="white"/>
<path d="M15.3771 11.9612L15.3764 11.9616L10.7827 14.1269C10.7825 14.127 10.7823 14.1271 10.782 14.1272C10.7494 14.1428 10.7151 14.15 10.6813 14.15C10.6474 14.15 10.6132 14.1429 10.5806 14.1273C10.5803 14.1272 10.5801 14.127 10.5799 14.1269L5.98579 11.962C5.98556 11.9619 5.98533 11.9618 5.9851 11.9617L5.98496 11.9616L6.0489 11.8259L15.3771 11.9612ZM15.3771 11.9612C15.4583 11.9224 15.5113 11.8405 15.5113 11.7489C15.5113 11.6587 15.4594 11.5749 15.3759 11.536M15.3771 11.9612L15.3759 11.536M15.3759 11.536C15.3758 11.5359 15.3757 11.5359 15.3755 11.5358L13.53 10.6662L15.3764 9.79579L15.3771 9.79542C15.4583 9.75662 15.5113 9.67464 15.5113 9.58308C15.5113 9.4929 15.4594 9.40914 15.3761 9.37022L15.3764 9.37038L15.3124 9.50605L15.3755 9.36997L15.3759 11.536ZM13.5314 6.33453L15.3781 5.46415L15.3789 5.46378C15.4601 5.42497 15.5131 5.343 15.5131 5.25144C15.5131 5.16125 15.4612 5.07748 15.3778 5.03857C15.3776 5.03849 15.3775 5.03841 15.3773 5.03833L10.7817 2.87245C10.7817 2.87244 10.7817 2.87243 10.7817 2.87243C10.7183 2.84252 10.6445 2.84252 10.5811 2.87243C10.5811 2.87243 10.5811 2.87244 10.581 2.87245L5.9855 5.03828L5.9855 5.03828L5.98473 5.03865C5.90359 5.07745 5.85055 5.15943 5.85055 5.25099C5.85055 5.34118 5.90245 5.42494 5.98583 5.46386C5.986 5.46394 5.98617 5.46402 5.98634 5.4641L7.83227 6.33409L5.98553 7.20409L5.98552 7.20409L5.98473 7.20447C5.90359 7.24328 5.85055 7.32525 5.85055 7.41681C5.85055 7.507 5.90245 7.59077 5.98583 7.62968C5.986 7.62976 5.98617 7.62984 5.98634 7.62992L7.83233 8.49994L5.9855 9.37036L5.9855 9.37035L5.98473 9.37072C5.90359 9.40953 5.85055 9.4915 5.85055 9.58307C5.85055 9.67325 5.90245 9.75703 5.98584 9.79594C5.98601 9.79602 5.98618 9.79609 5.98634 9.79617L7.8325 10.6661L13.5314 6.33453ZM13.5314 6.33453L15.3764 7.20372L13.5314 6.33453ZM13.5308 8.49998L15.3773 7.62953L15.378 7.62917C15.4592 7.59036 15.5122 7.50839 15.5122 7.41682C15.5122 7.32665 15.4603 7.24288 15.377 7.20397L15.3772 7.2041L13.5308 8.49998ZM10.6813 7.15709L6.63745 5.25102L10.6813 3.34536L14.7252 5.25102L10.6813 7.15709ZM10.6817 11.4888L6.63707 9.58315L8.38344 8.76018L10.5798 9.79533C10.5801 9.79545 10.5803 9.79556 10.5805 9.79568C10.6132 9.81126 10.6474 9.81841 10.6812 9.81841C10.7151 9.81841 10.7493 9.81125 10.782 9.79566C10.7822 9.79555 10.7824 9.79544 10.7827 9.79533L12.9786 8.75977L14.7244 9.58312L10.6817 11.4888ZM10.6817 9.32338L6.63752 7.41693L8.38428 6.59432L10.5798 7.62947L10.6449 7.49432L10.5809 7.63L10.5805 7.62982C10.6132 7.64539 10.6474 7.65254 10.6812 7.65254C10.7151 7.65254 10.7493 7.64539 10.782 7.6298C10.7822 7.62969 10.7824 7.62958 10.7827 7.62947L12.979 6.59432L14.7247 7.41691L10.6817 9.32338ZM10.6813 13.6546L6.63711 11.7491L8.38431 10.9264L10.5803 11.9612C10.5805 11.9613 10.5807 11.9614 10.5809 11.9615C10.6136 11.9771 10.6478 11.9842 10.6817 11.9842C10.7156 11.9842 10.7498 11.9771 10.7825 11.9615C10.7827 11.9614 10.7829 11.9613 10.7831 11.9612L12.9786 10.9265L14.7246 11.749L10.6813 13.6546Z" fill="#4D4C4F" stroke="#4D4C4F" stroke-width="0.3" stroke-linejoin="round"/>
</svg>
