<svg width="20" height="20" viewBox="0 0 20 20" fill="none" xmlns="http://www.w3.org/2000/svg">
<rect x="0.5" y="3.0498" width="16.2826" height="16.2826" stroke="white"/>
<rect x="2.40332" width="17.2826" height="17.2826" fill="white"/>
<path d="M15.74 5.9C15.87 5.84 15.96 5.7 15.96 5.55C15.96 5.4 15.88 5.27 15.74 5.2L11.15 3.04C11.05 2.99 10.93 2.99 10.82 3.04L6.22 5.2L6.24 5.19L6.22 5.2C6.09 5.27 6 5.4 6 5.55C6 5.7 6.09 5.83 6.22 5.9L7.78 6.63L6.22 7.37C6.09 7.43 6 7.57 6 7.72C6 7.86 6.09 8 6.22 8.06L7.78 8.8L6.25 9.52L6.22 9.54C6.09 9.6 6 9.73 6 9.88C6 10.03 6.08 10.16 6.22 10.23L7.78 10.96L6.22 11.7C6.09 11.76 6 11.9 6 12.05C6 12.2 6.08 12.33 6.22 12.4L10.81 14.57C10.86 14.6 10.92 14.61 10.97 14.61C11.02 14.61 11.08 14.6 11.13 14.57L15.74 12.4C15.87 12.34 15.96 12.2 15.96 12.05C15.96 11.9 15.88 11.77 15.74 11.7L14.18 10.97L15.74 10.24C15.87 10.18 15.96 10.04 15.96 9.89C15.96 9.74 15.88 9.61 15.74 9.54L14.18 8.8L15.7 8.09L15.75 8.07C15.88 8 15.96 7.87 15.96 7.72C15.96 7.57 15.88 7.44 15.74 7.37L14.18 6.63L15.74 5.9ZM14.67 9.88L10.98 11.62L7.29 9.88L8.68 9.22L10.81 10.23C10.86 10.26 10.92 10.27 10.97 10.27C11.02 10.27 11.08 10.26 11.13 10.23L13.26 9.22L14.67 9.88ZM14.67 12.05L10.98 13.79L7.29 12.05L8.69 11.39L10.82 12.4C10.87 12.43 10.93 12.44 10.98 12.44C11.03 12.44 11.09 12.42 11.15 12.4L13.28 11.39L14.67 12.05ZM10.98 3.81L14.67 5.55L10.98 7.29L7.29 5.55L10.98 3.81ZM8.68 7.06L10.81 8.07C10.87 8.09 10.93 8.1 10.98 8.1C11.03 8.1 11.09 8.09 11.14 8.06L13.27 7.05L14.66 7.71L10.98 9.46L7.29 7.72L8.68 7.06Z" fill="#4D4C4F"/>
</svg>
