<svg width="20" height="20" viewBox="0 0 20 20" fill="none" xmlns="http://www.w3.org/2000/svg">
<rect x="0.5" y="3.0498" width="16.2826" height="16.2826" stroke="white"/>
<rect x="2.40332" width="17.2826" height="17.2826" fill="white"/>
<path d="M11.46 13.5296C8.92 13.5296 6.87 11.4696 6.87 8.94963C6.87 6.69963 8.5 4.84963 10.63 4.45963C10.61 4.57963 10.63 4.68963 10.71 4.78963C10.79 4.88963 10.91 4.95963 11.05 4.95963C11.11 4.95963 11.22 4.93963 11.3 4.86963L12.06 4.29963L12.1 4.26963C12.2 4.18963 12.26 4.06963 12.26 3.92963C12.26 3.77963 12.18 3.64963 12.07 3.57963L11.29 3.06963C11.1 2.94963 10.83 2.97963 10.69 3.19963C10.61 3.31963 10.61 3.46963 10.66 3.58963C8.03 3.97963 6 6.21962 6 8.94963C6 11.9596 8.44 14.3996 11.45 14.3996C14.46 14.3996 16.91 11.9596 16.91 8.94963C16.91 8.72963 16.73 8.50963 16.48 8.50963C16.2 8.50963 16.05 8.76963 16.05 8.93963C16.05 11.4596 14 13.5296 11.46 13.5296Z" fill="#4D4C4F"/>
<path d="M15.9701 7.36964C15.8701 7.45964 15.8101 7.57964 15.8101 7.72964C15.8101 7.87964 15.8701 8.00964 15.9701 8.09964C16.0601 8.17964 16.1801 8.21964 16.3001 8.21964C16.4201 8.21964 16.5301 8.17964 16.6301 8.09964C16.7301 8.00964 16.7901 7.88964 16.7901 7.73964C16.7901 7.58964 16.7301 7.45964 16.6301 7.37964C16.5401 7.29964 16.4201 7.25964 16.3001 7.25964C16.1801 7.25964 16.0601 7.28964 15.9701 7.36964Z" fill="#4D4C4F"/>
<path d="M15.45 6.67965C15.45 6.82965 15.51 6.95965 15.61 7.03965C15.7 7.12965 15.82 7.15965 15.94 7.15965C16.06 7.15965 16.17 7.11965 16.27 7.03965C16.37 6.94965 16.43 6.82965 16.43 6.67965C16.43 6.52965 16.37 6.39965 16.27 6.31965C16.17 6.22965 16.05 6.19965 15.94 6.19965C15.83 6.19965 15.7 6.22965 15.61 6.31965C15.51 6.39965 15.45 6.52965 15.45 6.67965Z" fill="#4D4C4F"/>
<path d="M14.93 6.04959C15.02 6.12959 15.14 6.16959 15.26 6.16959C15.38 6.16959 15.49 6.12959 15.59 6.04959C15.69 5.95959 15.75 5.83959 15.75 5.68959C15.75 5.53959 15.68 5.41959 15.58 5.32959C15.49 5.23959 15.37 5.20959 15.25 5.20959C15.13 5.20959 15.02 5.23959 14.93 5.32959C14.83 5.41959 14.77 5.53959 14.77 5.68959C14.77 5.83959 14.83 5.96959 14.93 6.04959Z" fill="#4D4C4F"/>
<path d="M14.3101 5.31962C14.4201 5.31962 14.5401 5.27962 14.6401 5.19962C14.7401 5.10962 14.8001 4.98962 14.8001 4.83962C14.8001 4.68962 14.7401 4.55962 14.6401 4.47962C14.5401 4.38962 14.4201 4.35962 14.3101 4.35962C14.2001 4.35962 14.0801 4.38962 13.9801 4.47962C13.8801 4.56962 13.8201 4.68962 13.8201 4.83962C13.8201 4.98962 13.8801 5.10962 13.9801 5.19962C14.0801 5.28962 14.2001 5.31962 14.3101 5.31962Z" fill="#4D4C4F"/>
<path d="M13.19 4.72964C13.3 4.72964 13.42 4.68964 13.52 4.60964C13.62 4.51964 13.68 4.39964 13.68 4.24964C13.68 4.09964 13.61 3.96964 13.51 3.88964C13.42 3.79964 13.3 3.75964 13.19 3.75964C13.08 3.75964 12.95 3.79964 12.86 3.88964C12.76 3.96964 12.7 4.09964 12.7 4.24964C12.7 4.39964 12.76 4.52964 12.86 4.60964C12.95 4.69964 13.07 4.72964 13.19 4.72964Z" fill="#4D4C4F"/>
<path d="M9.27008 8.10959L10.1901 9.03959C10.2701 9.11959 10.3801 9.16959 10.5001 9.16959C10.6201 9.16959 10.7301 9.12959 10.8101 9.03959C10.9001 8.95959 10.9401 8.84959 10.9401 8.73959C10.9401 8.61959 10.9001 8.51959 10.8101 8.42959L10.6301 8.22959H13.2301C13.4601 8.22959 13.6501 8.03959 13.6501 7.79959C13.6501 7.56959 13.4601 7.36959 13.2301 7.36959H10.6301L10.8201 7.19959C10.9901 7.02959 10.9901 6.75959 10.8201 6.58959C10.7301 6.49959 10.6201 6.45959 10.5101 6.45959C10.4101 6.45959 10.2901 6.49959 10.2001 6.58959L9.27008 7.49959C9.10008 7.66959 9.10008 7.94959 9.27008 8.10959Z" fill="#4D4C4F"/>
<path d="M12.12 11.4996C12.17 11.5296 12.25 11.5596 12.35 11.5596C12.36 11.5596 12.37 11.5596 12.37 11.5596C12.49 11.5596 12.6 11.5196 12.68 11.4296L13.6 10.4996C13.77 10.3296 13.77 10.0596 13.6 9.88961L12.69 8.97961C12.52 8.80961 12.25 8.80961 12.08 8.97961C11.91 9.14961 11.91 9.41961 12.08 9.58961L12.26 9.76961H9.64996C9.41996 9.76961 9.20996 9.95961 9.20996 10.2096C9.20996 10.4396 9.39996 10.6496 9.64996 10.6496H12.25L12.07 10.8496C11.98 10.9296 11.94 11.0396 11.94 11.1596C11.94 11.2796 11.98 11.3896 12.07 11.4696L12.12 11.4996Z" fill="#4D4C4F"/>
</svg>
