<svg width="20" height="20" viewBox="0 0 20 20" fill="none" xmlns="http://www.w3.org/2000/svg">
<rect x="0.5" y="3.0498" width="16.2826" height="16.2826" stroke="white"/>
<rect x="2.40332" width="17.2826" height="17.2826" fill="white"/>
<path d="M6.56595 8.75215C6.56595 6.38436 8.3196 4.43226 10.5977 4.11503C10.5027 4.23171 10.4906 4.40392 10.5901 4.53099L10.5901 4.53099L10.5906 4.53168C10.6535 4.61056 10.7499 4.66032 10.8508 4.66032C10.9041 4.66032 10.9901 4.64825 11.052 4.59127L11.8202 4.00391L11.8203 4.00393L11.8218 4.00268C11.9027 3.93822 11.9505 3.84096 11.9505 3.73145C11.9505 3.61526 11.8856 3.5163 11.802 3.46507L11.0315 2.95527C11.0315 2.95522 11.0314 2.95517 11.0313 2.95512C10.8866 2.8584 10.6741 2.8882 10.5733 3.05309C10.4935 3.17435 10.5018 3.3423 10.6032 3.4526C7.95571 3.76695 5.9 6.02154 5.9 8.75215C5.9 11.704 8.29602 14.1 11.2479 14.1C14.1999 14.1 16.6073 11.7043 16.6073 8.75215C16.6073 8.57827 16.4667 8.41342 16.2801 8.41342H16.1886L16.1874 8.42687C16.052 8.46694 15.9529 8.59249 15.9529 8.74068C15.9529 11.3208 13.8509 13.4342 11.2594 13.4342H11.2594C8.6677 13.4346 6.56595 11.3321 6.56595 8.75215Z" fill="#4D4C4F" stroke="#4D4C4F" stroke-width="0.2"/>
<path d="M15.7148 7.53701C15.7148 7.65878 15.7614 7.75745 15.8371 7.82466C15.9109 7.89024 16.0064 7.92088 16.0987 7.92088C16.191 7.92088 16.2866 7.89024 16.3604 7.82466C16.436 7.75745 16.4827 7.65878 16.4827 7.53701C16.4827 7.41517 16.4361 7.31642 16.3604 7.24914C16.2866 7.18349 16.1911 7.15281 16.0987 7.15281C16.0064 7.15281 15.9108 7.18349 15.837 7.24914C15.7614 7.31642 15.7148 7.41517 15.7148 7.53701Z" fill="#4D4C4F" stroke="#4D4C4F" stroke-width="0.2"/>
<path d="M15.3513 6.48052C15.3513 6.60229 15.398 6.70096 15.4736 6.76818C15.5474 6.83375 15.643 6.86439 15.7353 6.86439C15.8276 6.86439 15.9231 6.83375 15.9969 6.76818C16.0726 6.70096 16.1193 6.60229 16.1193 6.48052C16.1193 6.35875 16.0726 6.26008 15.9969 6.19287C15.9231 6.12729 15.8276 6.09666 15.7353 6.09666C15.643 6.09666 15.5474 6.12729 15.4736 6.19287C15.398 6.26008 15.3513 6.35875 15.3513 6.48052Z" fill="#4D4C4F" stroke="#4D4C4F" stroke-width="0.2"/>
<path d="M14.6698 5.4923C14.6698 5.61407 14.7165 5.71274 14.7921 5.77995C14.8659 5.84553 14.9615 5.87617 15.0538 5.87617C15.146 5.87617 15.2416 5.84553 15.3154 5.77995C15.3911 5.71274 15.4377 5.61407 15.4377 5.4923C15.4377 5.37046 15.3911 5.27171 15.3155 5.20443C15.2417 5.13879 15.1461 5.1081 15.0538 5.1081C14.9614 5.1081 14.8659 5.13879 14.7921 5.20443C14.7164 5.27171 14.6698 5.37046 14.6698 5.4923Z" fill="#4D4C4F" stroke="#4D4C4F" stroke-width="0.2"/>
<path d="M13.7268 4.64046C13.7268 4.76223 13.7735 4.8609 13.8492 4.92812C13.923 4.99369 14.0185 5.02433 14.1108 5.02433C14.2031 5.02433 14.2987 4.99369 14.3725 4.92812C14.4481 4.8609 14.4948 4.76223 14.4948 4.64046C14.4948 4.51862 14.4482 4.41988 14.3725 4.3526C14.2987 4.28695 14.2031 4.25626 14.1108 4.25626C14.0185 4.25626 13.9229 4.28695 13.8491 4.3526C13.7735 4.41988 13.7268 4.51862 13.7268 4.64046Z" fill="#4D4C4F" stroke="#4D4C4F" stroke-width="0.2"/>
<path d="M12.602 4.04979C12.602 4.17157 12.6486 4.27024 12.7243 4.33745C12.7981 4.40302 12.8937 4.43366 12.9859 4.43366C13.0782 4.43366 13.1738 4.40302 13.2476 4.33745C13.3233 4.27024 13.3699 4.17157 13.3699 4.04979C13.3699 3.92795 13.3233 3.82921 13.2476 3.76193C13.1739 3.69628 13.0783 3.66559 12.9859 3.66559C12.8936 3.66559 12.798 3.69628 12.7242 3.76193C12.6486 3.82921 12.602 3.92795 12.602 4.04979Z" fill="#4D4C4F" stroke="#4D4C4F" stroke-width="0.2"/>
<path d="M10.4757 8.70655L10.5464 8.77726C10.6115 8.71222 10.644 8.62953 10.644 8.53616C10.644 8.44352 10.6124 8.36068 10.5467 8.2953L10.1909 7.93198H13.0233C13.2165 7.96101 13.3699 7.7886 13.3699 7.61634V7.51634H13.3544C13.3123 7.3827 13.1884 7.27761 13.0311 7.27761H10.1944L10.5464 6.92562C10.6763 6.7957 10.6766 6.58448 10.5462 6.45478L10.4757 6.52567L10.5464 6.45496C10.4814 6.38992 10.3987 6.35734 10.3053 6.35734C10.2266 6.35734 10.1311 6.3875 10.0641 6.45511L9.14393 7.37524C9.01413 7.50505 9.01376 7.71602 9.14378 7.84575C9.14389 7.84585 9.144 7.84596 9.14411 7.84607L10.0638 8.77684L10.0642 8.77726C10.1293 8.8423 10.2119 8.87488 10.3053 8.87488C10.3982 8.87488 10.4813 8.84303 10.5468 8.77691L10.4757 8.70655ZM10.4757 8.70655C10.521 8.66129 10.544 8.6045 10.544 8.53616C10.544 8.46783 10.5214 8.41103 10.4757 8.36577L10.1349 8.70655C10.1802 8.75181 10.237 8.77488 10.3053 8.77488C10.3736 8.77488 10.4304 8.75225 10.4757 8.70655Z" fill="#4D4C4F" stroke="#4D4C4F" stroke-width="0.2"/>
<path d="M12.1798 11.272V11.272C12.0889 11.272 12.0157 11.2417 11.9647 11.2162L11.9504 11.209L11.939 11.1978C11.8729 11.1323 11.841 11.0492 11.841 10.9563C11.841 10.8631 11.8735 10.7806 11.9383 10.7156L12.2942 10.3521H9.45351C9.2585 10.3521 9.11478 10.1906 9.11478 10.0134C9.11478 9.8184 9.27631 9.67469 9.45351 9.67469H12.3021L11.9503 9.32287C11.9503 9.32283 11.9502 9.32279 11.9502 9.32275L11.9501 9.32269L12.0209 9.25198C11.9299 9.16147 11.9299 9.01371 12.0209 8.92274L12.1798 11.272ZM12.1798 11.272C12.2727 11.2719 12.3557 11.2401 12.4211 11.174L12.4212 11.1739L13.3411 10.243L12.1798 11.272Z" fill="#4D4C4F" stroke="#4D4C4F" stroke-width="0.2"/>
</svg>
